<?xml version="1.0" encoding="UTF-8"?>
<svg width="322px" height="62px" viewBox="0 0 322 62" version="1.1" xmlns="http://www.w3.org/2000/svg" xmlns:xlink="http://www.w3.org/1999/xlink">
    <!-- Generator: Sketch 52.5 (67469) - http://www.bohemiancoding.com/sketch -->
    <title>davinci</title>
    <desc>Created with Sketch.</desc>
    <g id="Page-1" stroke="none" stroke-width="1" fill="none" fill-rule="evenodd">
        <g id="davinci" transform="translate(0.000000, -1.000000)">
            <g id="Group" transform="translate(146.650000, 31.150000) scale(-1, 1) rotate(-180.000000) translate(-146.650000, -31.150000) translate(0.150000, 0.150000)">
                <rect id="Rectangle" fill="#FFFFFF" fill-rule="nonzero" x="-4.99600361e-16" y="2" width="58" height="56"></rect>
                <path d="M11.1,55.35 C24.2,41.6 25.75,24.35 15.25,10.05 C13.25,7.3 11.35,5.3 11.05,5.6 C10.75,5.9 11.45,7.15 12.55,8.4 C19.35,15.85 21.75,30.15 17.9,40.3 C14.8,48.55 4.6,60.15 0.45,60.15 C0.1,60.15 -0.05,46.75 0.1,30.4 L0.35,0.65 L10.75,0.65 L20.184506,0.65 L24.5,6.75 C29.7,16.2 31.95,26.35 32.75,44.15 C33.35,58.2 33.5,59.1 34.3,53.7 C35.2,47.45 34.5,25.05 33.35,21.65 C32.95,20.55 35.05,23.95 38,29.2 C42.95,38 51.55,51.25 56,57.05 C57,58.35 57.85,59.8 57.85,60.25 C57.85,60.7 46.1,61.1 31.7,61.1 L5.6,61.1 L11.1,55.35 Z" id="Path" fill="#006530"></path>
                <path d="M53.25,48.05 C43.9,34.45 24.85,2.55 24.85,0.55 C24.85,0.3 32.7,0.15 42.35,0.15 C63.35,0.15 61,-3.9 60.65,31.55 L60.35,58.45 L53.25,48.05 Z" id="Path" fill="#006530"></path>
                <path d="" id="Path-2" stroke="#979797" fill-rule="nonzero"></path>
            </g>
            <text id="da-vinci" fill="#006530" font-family="Questrial-Regular, Questrial" font-size="60" font-weight="normal" letter-spacing="1.29999995">
                <tspan x="72.1400004" y="52">DA VINCI</tspan>
            </text>
        </g>
    </g>
</svg>