<?xml version="1.0" encoding="UTF-8"?>
<svg width="912px" height="366px" viewBox="0 0 912 366" version="1.1" xmlns="http://www.w3.org/2000/svg" xmlns:xlink="http://www.w3.org/1999/xlink">
    <!-- Generator: Sketch 52.5 (67469) - http://www.bohemiancoding.com/sketch -->
    <title>Untitled</title>
    <desc>Created with Sketch.</desc>
    <g id="Page-1" stroke="none" stroke-width="1" fill="none" fill-rule="evenodd">
        <g id="logogirls" fill="#FFFFFF">
            <path d="M198.167,2.619 C192.77,3.228 189.637,4.549 188.062,6.882 C187.802,7.268 187.308,7.963 186.964,8.427 C186.101,9.595 185.226,11.556 184.985,12.866 C184.241,16.901 186.311,26.993 188.288,28.97 L188.677,29.359 L192.714,29.305 C197.495,29.24 197.825,29.147 197.831,27.868 C197.834,27.094 197.382,26.306 195.944,24.583 C192.621,20.602 190.717,15.665 191.74,13.685 C192.183,12.83 193.949,11.375 195.444,10.634 C199.653,8.548 203.724,10.277 205.833,15.044 C206.508,16.57 207.191,20.584 206.989,21.833 C206.907,22.337 206.726,23.622 206.588,24.688 C206.259,27.211 205.952,28.158 204.326,31.667 C203.582,33.271 202.636,35.471 202.223,36.557 C201.811,37.642 200.921,39.592 200.246,40.89 C199.571,42.188 198.818,43.813 198.573,44.5 C198.125,45.753 197.547,46.841 195.907,49.518 C195.423,50.307 194.678,51.649 194.25,52.5 C193.822,53.351 193.06,54.714 192.556,55.529 C192.052,56.344 191.279,57.777 190.838,58.713 C190.397,59.65 189.774,60.848 189.454,61.374 C189.134,61.901 188.479,63.251 187.998,64.374 C186.554,67.748 185.436,69.816 182.615,74.333 C181.187,76.621 180.701,76.794 178.843,75.675 C178.242,75.313 176.887,74.709 175.833,74.332 C173.695,73.569 172.065,72.673 169.885,71.062 C166.701,68.709 165.624,68.182 161.717,67.067 C160.543,66.732 159.232,66.281 158.804,66.065 C156.183,64.747 148.832,62.787 145.75,62.584 C144.32,62.49 142.593,62.233 138.333,61.481 C136.09,61.084 128.969,60.76 127.909,61.006 C127.547,61.09 126.384,61.161 125.327,61.163 C124.269,61.165 122.581,61.273 121.577,61.403 C119.111,61.721 116.33,61.972 113.917,62.093 C112.196,62.179 110.682,62.401 105.333,63.353 C104.829,63.443 103.739,63.623 102.911,63.753 C102.082,63.883 101.07,64.11 100.661,64.256 C100.251,64.403 98.663,64.855 97.13,65.26 C92.487,66.489 86.504,68.928 84.667,70.34 C83.28,71.407 79.098,73.637 76.885,74.49 C75.162,75.155 72.69,76.805 69.812,79.213 C68.562,80.258 66.762,81.623 65.812,82.247 C63.992,83.44 63.181,84.174 57.667,89.61 C52.521,94.683 49.474,98.229 48.401,100.392 C48.09,101.02 47.328,102.245 46.709,103.114 C46.09,103.984 45.058,105.458 44.417,106.39 C43.775,107.321 42.629,108.796 41.869,109.667 C40.551,111.178 38.95,113.67 38.198,115.379 C38.006,115.817 37.275,117.148 36.575,118.337 C35.285,120.527 34.51,122.357 34.504,123.229 C34.502,123.493 34.351,124.356 34.168,125.146 C33.986,125.937 33.687,127.532 33.504,128.691 C33.284,130.087 32.918,131.514 32.419,132.919 C31.586,135.269 31.302,136.983 30.985,141.583 C30.884,143.05 30.652,145.146 30.469,146.24 C30.038,148.827 29.968,155.085 30.331,158.75 C30.466,160.125 30.565,161.85 30.549,162.583 C30.495,165.131 30.809,168.774 31.171,169.794 C31.503,170.729 32.209,174.093 32.421,175.75 C32.596,177.114 33.269,179.508 33.984,181.314 C34.353,182.245 34.887,183.811 35.17,184.795 C35.453,185.779 36.051,187.375 36.5,188.343 C36.948,189.311 37.74,191.374 38.259,192.927 C38.824,194.614 39.592,196.488 40.168,197.583 C40.754,198.698 41.264,199.948 41.47,200.771 C42.001,202.907 43.697,205.738 45.979,208.303 C47.509,210.022 48.29,210.994 49.489,212.667 C50.939,214.689 52.818,216.766 54.181,217.851 C54.769,218.32 55.856,219.251 56.597,219.922 C60.194,223.177 62.442,224.703 65.685,226.091 C66.454,226.42 67.458,226.972 67.917,227.318 C69.195,228.282 71.012,229.211 73.667,230.256 C74.996,230.779 76.646,231.525 77.333,231.913 C78.021,232.301 79.033,232.811 79.583,233.048 C83.17,234.59 84.171,235 84.35,235 C84.461,235 85.871,235.536 87.484,236.191 C90.167,237.281 94.232,238.667 94.748,238.667 C95.038,238.667 105.27,241.608 105.522,241.764 C105.796,241.933 109.08,242.528 111.478,242.842 C112.911,243.03 114.346,243.261 114.667,243.356 C115.293,243.541 118.243,243.769 122.667,243.974 C126.791,244.166 127.247,244.741 126.408,248.697 C126.129,250.015 126.186,253.759 126.521,256.083 C126.613,256.725 126.756,258.525 126.839,260.083 C126.922,261.642 127.074,263.817 127.178,264.917 C127.287,266.08 127.32,267.842 127.257,269.13 C127.118,271.958 127.439,281.828 127.751,284.333 C127.883,285.387 128.108,287.75 128.251,289.583 C128.394,291.417 128.581,293.704 128.665,294.667 C128.75,295.629 128.827,297.692 128.837,299.25 C128.847,300.808 128.921,303.133 129.003,304.417 C129.085,305.7 129.203,307.551 129.266,308.531 L129.38,310.312 L128.87,310.823 C128.393,311.3 128.279,311.333 127.138,311.332 C125.867,311.331 122.658,311.512 116.417,311.936 C109.46,312.409 107.406,312.509 104.333,312.525 C99.623,312.551 99.789,312.305 99.247,320.083 C99.069,322.643 99.668,323.296 101.833,322.904 C102.521,322.779 104.883,322.598 107.083,322.501 C109.283,322.404 112.396,322.255 114,322.171 C115.604,322.086 118.454,321.941 120.333,321.849 C122.212,321.756 124.776,321.592 126.03,321.485 C130.228,321.125 129.958,319.912 130.057,339.583 C130.086,345.363 130.089,345.379 131.339,346.692 C131.922,347.305 131.995,347.333 133.016,347.334 C133.603,347.334 135.133,347.526 136.417,347.759 C140.368,348.478 140.447,348.488 141.062,348.318 C142.669,347.874 143.469,345.091 142.767,342.393 C142.62,341.829 142.5,340.733 142.5,339.956 C142.5,338.88 142.381,338.131 141.999,336.813 C141.688,335.743 141.462,334.511 141.406,333.583 C141.356,332.758 141.201,331.416 141.061,330.601 C140.897,329.64 140.827,328.379 140.862,327.018 C140.892,325.862 140.851,324.227 140.771,323.383 L140.625,321.849 L141.104,321.371 C142.132,320.344 146.232,319.734 149.293,320.152 C150.508,320.318 150.969,320.31 152.003,320.107 C154.223,319.67 154.456,319.654 155.947,319.824 C156.755,319.917 158.167,320.071 159.083,320.167 C160,320.262 161.118,320.461 161.568,320.609 C163.304,321.179 165.391,320.661 166.037,319.5 C166.381,318.883 166.37,314.992 166.014,310.845 C165.767,307.97 164.842,307.562 160.083,308.232 C158.342,308.476 155.229,308.863 153.167,309.091 C151.104,309.319 148.892,309.612 148.25,309.743 C144.933,310.417 141.073,310.419 140.33,309.747 C139.864,309.325 139.724,308.686 139.507,306 C139.4,304.671 139.25,303.096 139.175,302.5 C139.099,301.904 139.026,297.667 139.012,293.083 C138.99,285.47 138.818,280.714 138.55,280.279 C138.492,280.186 138.428,279.092 138.406,277.847 C138.385,276.602 138.286,274.496 138.186,273.167 C137.62,265.602 137.499,262.81 137.441,255.917 C137.414,252.711 137.722,247.448 137.992,246.521 C138.45,244.943 139.062,244.671 142.565,244.489 C145.551,244.334 149.384,243.945 151.417,243.591 C152.15,243.463 153.425,243.314 154.25,243.259 C155.166,243.199 156.593,242.931 157.917,242.57 C159.108,242.246 160.871,241.791 161.833,241.56 C162.796,241.328 164.258,240.854 165.083,240.506 C165.908,240.158 167.336,239.643 168.255,239.36 C169.174,239.078 170.862,238.368 172.005,237.784 C175.76,235.865 178.731,234.247 179.917,233.476 C180.558,233.059 181.533,232.481 182.083,232.191 C182.633,231.901 183.646,231.22 184.333,230.679 C185.021,230.138 186.453,229.093 187.515,228.356 C188.871,227.416 189.659,226.736 190.157,226.076 C190.548,225.559 191.592,224.374 192.477,223.443 C195.684,220.072 196.269,219.385 197.4,217.665 C198.032,216.704 198.98,215.354 199.507,214.667 C200.033,213.979 200.782,212.892 201.171,212.25 C201.56,211.608 202.781,209.733 203.883,208.083 C210.845,197.661 213.106,193.475 215.676,186.25 C215.937,185.517 216.534,183.867 217.004,182.583 C218.611,178.19 220.76,171.528 220.984,170.25 C221.143,169.338 221.785,163.956 222.177,160.25 C222.264,159.425 222.452,157.925 222.593,156.917 C223.164,152.864 222.881,145.682 221.912,139.583 C221.679,138.117 221.376,136.129 221.24,135.167 C221.103,134.204 220.843,132.854 220.662,132.167 C220.481,131.479 220.222,130.375 220.086,129.713 C219.678,127.718 218.036,123.848 217.051,122.555 C216.828,122.264 216.399,121.438 216.096,120.721 C215.057,118.261 212.959,114.249 211.753,112.417 C211.09,111.408 209.896,109.518 209.1,108.216 C207.045,104.853 203.947,100.908 199.836,96.417 C198.089,94.508 197.582,93.854 195.182,90.417 C194.07,88.824 192.32,86.936 191.3,86.227 C188.865,84.538 189.804,83.898 194.917,83.764 C196.933,83.711 200.121,83.588 202,83.491 C205.576,83.307 219.311,83.269 220.75,83.44 C222.407,83.636 222.877,84.387 223.266,87.462 C223.402,88.537 223.553,89.529 223.602,89.667 C223.651,89.804 223.721,94.079 223.757,99.167 C223.847,111.893 224.273,123.237 224.926,130.333 C225.15,132.762 225.333,135.387 225.333,136.167 C225.333,136.946 225.41,138.391 225.504,139.379 C225.695,141.389 225.993,147.942 226.113,152.75 C226.178,155.356 226.142,156.138 225.906,157.167 C225.377,159.474 225.25,166.941 225.422,185.75 C225.666,212.554 225.674,217.282 225.475,219.167 C225.341,220.438 225.263,224.985 225.241,232.667 C225.224,239.037 225.197,248.6 225.183,253.917 C225.168,259.233 225.209,265.383 225.272,267.583 C225.414,272.462 225.362,277.018 225.147,278.583 C225.059,279.225 225.03,280.313 225.083,281 C225.136,281.688 225.115,282.8 225.036,283.473 C224.883,284.785 225.037,291.341 225.326,295.833 C225.446,297.699 225.45,299.039 225.337,300 C225.245,300.779 225.06,302.842 224.925,304.583 C224.665,307.943 224.461,309.427 224.085,310.705 C223.255,313.529 224.709,316.325 226.615,315.568 C227.331,315.284 227.794,315.255 230.954,315.298 C236.607,315.376 236.947,315.061 236.415,310.259 C236.18,308.141 236.124,307.93 235.593,307.158 C234.889,306.135 234.854,305.851 234.753,300.333 C234.711,297.996 234.634,294.996 234.583,293.667 C234.307,286.487 234.273,274.765 234.447,247.25 C234.601,223.013 234.613,203.591 234.476,201.917 C234.283,199.569 233.619,183.1 233.578,179.667 C233.512,174.032 233.288,168.961 232.917,164.667 C232.699,162.146 232.476,159.333 232.422,158.417 C232.368,157.5 232.247,156.037 232.154,155.167 C231.839,152.216 231.633,143.13 231.599,130.583 C231.578,123.19 231.486,116.994 231.373,115.417 C231.057,111.026 231.094,94.952 231.422,94.12 C231.815,93.124 232.64,93.52 233.775,95.251 C234.255,95.984 234.881,96.921 235.165,97.333 C236.774,99.668 238.154,101.967 238.923,103.597 C239.402,104.613 240.292,106.15 240.901,107.014 C242.849,109.778 243.564,110.755 244.436,111.848 C244.906,112.436 246.162,114.239 247.229,115.855 C248.295,117.472 249.749,119.449 250.459,120.249 C253.578,123.763 253.934,124.303 254.679,126.625 C255.405,128.893 256.369,129.192 261.963,128.882 C264.219,128.758 265.33,128.77 266.667,128.937 C269.26,129.259 269.725,129.236 270.293,128.758 C270.993,128.169 271.157,127.814 273.221,122.417 C273.536,121.592 274.062,120.279 274.389,119.5 C274.716,118.721 275.591,116.508 276.332,114.583 C277.074,112.658 277.883,110.558 278.132,109.917 C278.38,109.275 279.266,107.612 280.1,106.22 C280.935,104.829 282.055,102.654 282.591,101.387 C283.904,98.279 284.582,97.625 285.379,98.694 C286.185,99.775 286.528,112.961 286.282,133.417 C286.212,139.192 286.087,144.592 286.003,145.417 C285.818,147.245 285.739,159.6 285.883,164.417 C285.948,166.614 285.922,168.289 285.811,168.917 C285.607,170.076 285.572,180.406 285.755,185.5 C285.844,187.976 285.82,189.261 285.669,190.167 C285.54,190.937 285.439,193.56 285.405,197 C285.364,201.244 285.288,202.883 285.09,203.833 C284.947,204.521 284.751,206.058 284.654,207.25 C284.558,208.442 284.297,210.392 284.075,211.583 C283.64,213.917 283.397,216.326 283.162,220.667 C283.08,222.179 282.964,223.794 282.905,224.255 C282.646,226.279 283.512,226.943 286.16,226.749 C288.372,226.588 289.186,226.588 292.092,226.75 C296.396,226.989 296.389,227.001 296.247,220.083 C296.159,215.814 296.186,214.62 296.404,213.209 C296.679,211.421 296.726,208.78 296.513,207.083 C296.444,206.533 296.454,205.41 296.536,204.587 C296.651,203.422 296.629,202.852 296.432,202.004 C296.1,200.574 295.96,193.98 296.125,187.583 C296.194,184.925 296.195,182.15 296.128,181.417 C296.061,180.683 295.973,177.683 295.933,174.75 C295.892,171.817 295.806,168.554 295.74,167.5 C295.623,165.62 295.476,154.69 295.51,150.417 C295.52,149.225 295.446,147.2 295.345,145.917 C295.22,144.313 295.213,142.681 295.323,140.698 C295.462,138.2 295.441,137.483 295.168,135.364 C294.281,128.482 294.382,108.905 295.343,101.57 C295.688,98.936 295.793,97.015 295.907,91.25 C295.94,89.6 296.044,87.65 296.138,86.917 C296.477,84.277 296.586,74.406 296.282,73.942 C295.824,73.243 294.724,72.943 292.956,73.035 C290.247,73.177 289.213,73.933 288.412,76.359 C287.904,77.898 287.283,79.195 286.507,80.333 C286.226,80.746 285.617,82.058 285.153,83.25 C284.69,84.442 283.558,86.874 282.638,88.655 C281.718,90.436 280.569,92.798 280.085,93.905 C279.6,95.011 278.291,97.904 277.176,100.333 C275.22,104.592 273.861,107.852 272.799,110.833 C272.134,112.702 271.21,114.518 270.298,115.75 C269.891,116.3 269.458,117.013 269.335,117.333 C268.611,119.237 267.151,119.792 265.992,118.606 C265.427,118.028 261.861,112.813 261.099,111.45 C260.833,110.973 260.088,109.721 259.444,108.667 C258.799,107.612 257.979,106.263 257.62,105.667 C257.262,105.071 256.271,103.533 255.418,102.25 C250.059,94.186 247.938,90.496 246.772,87.214 C246.207,85.625 245.703,84.652 244.622,83.064 C244.13,82.341 243.292,80.925 242.758,79.917 C242.225,78.908 241.392,77.408 240.908,76.583 C240.424,75.758 239.943,74.764 239.84,74.374 C239.413,72.755 237.505,71.526 235.861,71.811 C234.241,72.091 228.91,71.95 227.379,71.586 C226.259,71.319 226.067,71.318 224.609,71.566 C222.734,71.886 221.036,71.902 217.241,71.637 C214.76,71.463 214.167,71.473 212.574,71.713 C211.571,71.865 209.7,72.068 208.417,72.165 C204.847,72.434 203.006,72.65 202,72.919 C199.492,73.589 194.265,73.84 193.606,73.321 C192.468,72.426 193.571,68.586 197.17,60.917 C197.557,60.092 198.242,58.442 198.692,57.25 C199.142,56.058 200.069,53.921 200.753,52.5 C202.329,49.222 204.209,44.735 204.907,42.583 C205.204,41.667 205.831,40.017 206.3,38.917 C208.305,34.211 209.079,32.036 210.156,28.083 C210.531,26.708 211.023,24.962 211.249,24.202 C211.608,22.995 211.673,22.365 211.769,19.202 L211.878,15.583 L211.349,13.417 C209.569,6.133 204.418,1.914 198.167,2.619 M132.082,69.844 C133.329,69.849 134.777,69.927 135.3,70.016 C135.822,70.105 137.371,70.249 138.742,70.335 C142.784,70.59 144.403,70.972 148.75,72.696 C150.125,73.242 152.17,73.947 153.294,74.265 C157.083,75.334 162.566,77.878 166.631,80.453 C167.757,81.166 169.362,82.162 170.199,82.667 C171.036,83.171 172.611,84.236 173.7,85.033 C174.789,85.831 176.08,86.712 176.568,86.991 C179.223,88.51 187.557,96.048 189.016,98.25 C189.32,98.708 190.104,99.608 190.758,100.25 C191.412,100.892 192.705,102.429 193.63,103.667 C194.555,104.904 195.948,106.659 196.725,107.566 C198.396,109.517 199.676,111.613 201.418,115.25 C202.121,116.717 203.173,118.704 203.756,119.667 C204.796,121.382 205.785,123.736 207.186,127.833 C208.175,130.726 208.456,132.417 208.665,136.75 C208.767,138.858 208.92,141.071 209.005,141.667 C209.091,142.262 209.162,143.359 209.163,144.104 C209.165,144.919 209.272,145.748 209.432,146.187 C209.643,146.764 209.679,147.318 209.605,148.833 C209.554,149.887 209.585,151.5 209.675,152.417 C209.782,153.525 209.779,154.613 209.666,155.667 C209.572,156.537 209.428,159.05 209.345,161.25 C209.228,164.408 209.107,165.706 208.771,167.417 C208.537,168.608 208.197,170.783 208.015,172.25 C207.662,175.101 206.958,178.186 206.183,180.289 C205.92,181.001 205.58,182.197 205.428,182.946 C205.275,183.696 204.806,185.195 204.386,186.279 C203.965,187.363 203.181,189.403 202.644,190.813 C201.62,193.499 200.213,196.224 198.333,199.167 C197.718,200.129 196.898,201.496 196.511,202.204 C196.125,202.912 195.342,204.112 194.772,204.871 C191.866,208.742 189.78,211.337 189.056,211.983 C185.272,215.356 183.954,216.572 183.009,217.562 C182.408,218.192 181.467,219.01 180.917,219.381 C180.367,219.752 179.706,220.23 179.447,220.443 C179.189,220.656 178.523,221.097 177.968,221.422 C177.412,221.748 176.16,222.638 175.187,223.4 C174.213,224.161 172.854,225.107 172.167,225.501 C171.479,225.896 170.649,226.427 170.323,226.682 C169.608,227.24 165.824,229.5 165.605,229.5 C165.52,229.5 164.43,229.987 163.183,230.581 C160.905,231.668 158.796,232.381 157.25,232.586 C155.853,232.771 149.627,233.826 148.917,233.998 C148.55,234.086 147.537,234.162 146.667,234.167 C145.796,234.171 144.783,234.246 144.417,234.334 C140.763,235.205 129.248,235.647 124.917,235.082 C123.817,234.939 121.867,234.754 120.583,234.67 C119.3,234.586 117.5,234.366 116.583,234.181 C115.667,233.996 113.979,233.727 112.833,233.583 C109.439,233.156 104.802,232.183 101,231.099 C92.128,228.57 91.575,228.374 86,225.797 C79.737,222.901 76.601,220.858 74.247,218.142 C73.004,216.707 71.374,215.493 66.748,212.556 C65.549,211.795 63.345,209.694 61.904,207.936 C61.218,207.101 60.053,205.704 59.315,204.833 C57.142,202.268 54.787,198.755 52.843,195.179 C52.316,194.21 51.382,192.629 50.767,191.667 C48.437,188.02 46.797,184.21 45.103,178.5 C43.846,174.266 43.704,173.659 43.516,171.75 C43.42,170.77 43.142,169.418 42.84,168.467 C41.744,165.013 41.455,152.347 42.311,145.25 C43.264,137.352 44.441,131.552 45.626,128.917 C46.518,126.932 47.18,125.075 47.652,123.225 C48.097,121.483 49.288,118.642 50.215,117.113 C50.614,116.455 51.766,114.229 52.774,112.167 C54.582,108.47 56.483,105.373 57.839,103.917 C58.18,103.55 59.072,102.328 59.821,101.201 C60.571,100.073 61.574,98.686 62.052,98.117 C62.529,97.549 63.609,96.216 64.451,95.156 C66.389,92.714 71.177,88.018 72.836,86.931 C73.522,86.481 74.646,85.682 75.333,85.154 C77.247,83.685 78.713,82.986 79.833,83.009 C80.337,83.019 80.845,83.021 80.96,83.014 C81.076,83.006 81.432,82.592 81.751,82.092 C82.613,80.746 84.144,79.738 86.583,78.914 C87.317,78.666 88.498,78.21 89.209,77.901 C89.92,77.592 91.518,77.033 92.759,76.658 C94,76.283 95.256,75.877 95.55,75.755 C96.103,75.525 98.098,74.994 101.243,74.238 C102.248,73.997 103.636,73.591 104.327,73.336 C105.018,73.082 106.183,72.745 106.917,72.589 C107.65,72.432 109.45,72.012 110.917,71.656 C115.166,70.623 117.177,70.333 120.11,70.333 C121.527,70.333 123.204,70.253 123.836,70.155 C125.232,69.938 128.942,69.685 129.449,69.772 C129.651,69.807 130.835,69.839 132.082,69.844 M329.667,187.731 C329.071,187.856 327.496,188.164 326.167,188.417 C324.802,188.676 322.952,189.168 321.917,189.546 C320.908,189.915 319.671,190.324 319.167,190.457 C316.008,191.284 310.783,195.004 307.935,198.455 C307.236,199.301 305.971,200.729 305.124,201.628 C303.109,203.765 302.845,204.296 301.93,208.051 C300.192,215.189 301.86,219.871 307.463,223.579 C308.812,224.472 311.758,225.358 313.833,225.495 C314.887,225.565 316.078,225.745 316.479,225.895 C317.007,226.091 317.768,226.167 319.229,226.166 C320.341,226.166 322.426,226.252 323.863,226.356 C326.47,226.547 326.478,226.546 327.863,226.11 C329.723,225.523 331.152,225.208 332.756,225.028 C333.657,224.927 334.495,224.699 335.337,224.324 C337.024,223.572 338.214,223.536 338.729,224.22 C339.069,224.671 339.088,224.929 339.196,230.387 C339.258,233.52 339.391,237.433 339.491,239.083 C339.601,240.897 339.632,244.094 339.568,247.167 C339.496,250.66 339.531,253.267 339.681,255.5 C339.802,257.287 339.878,259.725 339.851,260.917 C339.818,262.378 339.922,264.113 340.171,266.247 C340.577,269.739 340.575,272.798 340.164,273.446 C339.729,274.134 339.278,274.199 333.917,274.347 C324.397,274.609 319.335,275.537 312.667,278.241 C311.246,278.817 309.558,279.459 308.917,279.669 C301.793,281.995 295.715,287.07 293.903,292.206 C292.863,295.153 294.182,300.019 296.458,301.629 C296.985,302.002 297.862,302.688 298.407,303.152 C300.705,305.111 307.962,307.323 312.143,307.341 C313.119,307.345 314.254,307.422 314.667,307.513 C316.798,307.983 329.745,308.312 333.876,308.001 C335.365,307.889 338.158,307.773 340.083,307.742 C346.092,307.647 347.162,307.222 347.505,304.796 C347.588,304.211 347.763,303.474 347.895,303.158 C348.303,302.177 348.259,301.282 347.567,296.5 C347.315,294.765 347.214,291.736 347.094,282.417 C347.06,279.758 346.948,276.987 346.846,276.258 C346.698,275.196 346.405,265.633 346.446,263.167 C346.643,251.319 346.651,241.054 346.467,235.25 C346.15,225.268 346.194,221.285 346.652,218.5 C347.332,214.365 347.679,212.647 347.996,211.843 C348.899,209.553 349.152,205.988 348.768,200.993 C348.386,196.035 347.719,194.278 345.266,191.767 C342.908,189.354 342.28,189.048 338.571,188.505 C337.203,188.305 335.581,188.036 334.966,187.908 C333.248,187.549 330.913,187.471 329.667,187.731 M336.731,192.672 C340.538,193.033 342.696,194.746 343.566,198.097 C343.706,198.639 343.978,199.533 344.169,200.083 C344.795,201.885 345.05,208.044 344.565,209.675 C343.365,213.716 340.694,216.743 337.788,217.355 C337.309,217.456 336.495,217.714 335.98,217.929 C332.389,219.426 327.914,219.263 323.417,217.473 C319.23,215.806 315.127,208.291 316.153,204.167 C317.471,198.87 319.294,195.514 321.387,194.532 C322.163,194.168 326.698,192.965 328.25,192.712 C329.628,192.487 334.534,192.464 336.731,192.672 M339.5,278.625 C340.411,279.08 340.543,279.714 340.335,282.639 C340.213,284.355 340.216,285.462 340.344,286.427 C340.636,288.624 340.483,298.093 340.143,298.847 C339.195,300.949 331.977,302.448 327.999,301.368 C327.312,301.181 326.376,300.978 325.919,300.915 C320.999,300.241 315.989,298.115 313.624,295.699 C308.926,290.898 309.492,284.391 314.82,281.96 C319.932,279.629 324.136,278.789 332.083,278.513 C338.343,278.296 338.856,278.304 339.5,278.625" id="path0"></path>
            <path d="M0,183 L0,366 L200,366 L400,366 L400,183 L400,0 L200,0 L0,0 L0,183 M203.333,2.16 C209.965,4.815 212.93,10.022 212.861,18.89 L212.829,22.864 L212.189,24.807 C211.837,25.876 211.345,27.613 211.095,28.667 C210.519,31.093 209.586,33.981 208.995,35.167 C208.744,35.671 208.308,36.736 208.027,37.533 C207.745,38.331 207.35,39.306 207.149,39.7 C206.948,40.094 206.466,41.354 206.079,42.5 C205.692,43.646 204.964,45.521 204.462,46.667 C203.959,47.813 203.489,48.938 203.417,49.167 C203.345,49.396 202.691,50.821 201.962,52.333 C201.234,53.846 200.187,56.283 199.635,57.75 C199.084,59.217 198.237,61.242 197.754,62.25 C197.27,63.258 196.817,64.271 196.747,64.5 C196.677,64.729 196.138,66.042 195.549,67.417 C194.344,70.231 194.02,71.866 194.576,72.328 C194.973,72.656 199.368,72.333 202.083,71.776 C203.183,71.55 204.758,71.319 205.583,71.263 C208.232,71.082 210.704,70.83 212.543,70.554 C214.131,70.315 214.713,70.309 217.627,70.501 C222.958,70.852 224.676,70.631 226.722,69.334 C227.73,68.695 227.981,68.705 228.833,69.417 C229.459,69.94 229.634,70 230.522,70 C231.218,70 231.723,70.109 232.215,70.365 C232.99,70.768 234.118,70.83 236.337,70.592 L237.591,70.458 L238.874,71.477 C240.297,72.607 240.539,72.913 241.023,74.187 C241.206,74.669 241.904,76.006 242.574,77.157 C243.244,78.308 244.033,79.73 244.328,80.316 C244.622,80.902 245.269,82.011 245.765,82.781 C246.881,84.511 247.447,85.616 247.86,86.876 C248.67,89.341 251.049,93.531 255.125,99.67 C256.89,102.327 258.333,104.601 258.333,104.723 C258.333,104.845 258.637,105.378 259.008,105.908 C259.74,106.952 261.437,109.728 261.918,110.667 C262.082,110.987 262.674,111.898 263.233,112.69 C263.793,113.482 264.801,114.927 265.475,115.901 C267.181,118.37 267.603,118.502 268.329,116.798 C268.536,116.313 268.948,115.617 269.245,115.25 C269.976,114.349 270.728,113.091 271.137,112.083 C271.324,111.625 271.972,109.975 272.579,108.417 C274.062,104.604 274.551,103.462 276.825,98.5 C277.896,96.162 279.022,93.65 279.327,92.917 C279.633,92.183 280.623,90.184 281.528,88.473 C282.446,86.738 283.617,84.204 284.175,82.741 C284.726,81.298 285.388,79.848 285.646,79.517 C286.484,78.444 286.993,77.413 287.324,76.12 C288.138,72.939 289.822,71.755 293.385,71.859 C297.764,71.988 297.905,72.362 297.481,82.667 C296.979,94.831 296.712,99.684 296.419,101.917 C295.87,106.108 295.658,110.024 295.675,115.667 C295.699,124.078 295.951,133.13 296.184,134 C296.315,134.488 296.403,136.581 296.436,140 C296.463,142.887 296.532,147.05 296.588,149.25 C296.645,151.45 296.709,156.137 296.731,159.667 C296.754,163.196 296.838,166.833 296.919,167.75 C297,168.667 297.071,171.254 297.076,173.5 C297.082,175.746 297.149,180.021 297.225,183 C297.306,186.193 297.299,189.569 297.208,191.224 C297.017,194.676 297.227,200.464 297.601,202.015 C297.82,202.923 297.835,203.364 297.688,204.563 C297.563,205.583 297.562,206.841 297.685,208.799 C297.822,210.992 297.812,211.866 297.638,212.917 C297.484,213.847 297.417,216.021 297.417,220.109 L297.417,225.968 L296.902,226.609 C295.896,227.861 295.22,228.094 292.833,228.01 C291.688,227.969 290.075,227.943 289.25,227.951 C288.425,227.958 286.868,227.974 285.79,227.986 C282.526,228.021 281.48,227.042 281.743,224.196 C281.808,223.492 281.92,221.867 281.992,220.583 C282.252,215.966 282.517,213.404 282.913,211.675 C283.152,210.632 283.384,208.882 283.483,207.372 C283.575,205.973 283.688,204.768 283.733,204.694 C284.006,204.252 284.211,200.919 284.242,196.417 C284.264,193.246 284.362,190.67 284.495,189.75 C284.653,188.658 284.677,187.456 284.584,185.333 C284.402,181.21 284.45,170.034 284.654,168.88 C284.758,168.294 284.785,166.611 284.722,164.583 C284.666,162.75 284.621,160.2 284.624,158.917 C284.645,148.932 284.677,146.945 284.832,145.917 C284.992,144.859 285.261,127.713 285.243,119.75 C285.221,110.051 284.888,102.064 284.474,101.287 C284.231,100.83 284.041,101.066 283.179,102.892 C282.74,103.822 281.82,105.455 281.135,106.52 C279.867,108.491 279.483,109.295 278.401,112.25 C278.065,113.167 277.506,114.592 277.158,115.417 C276.141,117.827 274.496,121.961 273.908,123.583 C272.274,128.095 271.551,129.379 270.281,130.027 L269.594,130.377 L266.921,130.081 C264.647,129.83 263.911,129.813 261.989,129.97 C256.431,130.424 254.524,129.83 253.814,127.424 C253.3,125.683 252.415,124.123 251.178,122.78 C249.12,120.544 247.725,118.755 246.115,116.289 C245.231,114.936 244.036,113.286 243.459,112.623 C242.882,111.959 242.193,111.042 241.927,110.583 C241.661,110.125 240.859,108.918 240.144,107.9 C239.43,106.883 238.442,105.196 237.95,104.15 C236.578,101.234 233.273,96.36 232.793,96.544 C232.526,96.646 232.233,102.264 232.277,106.417 C232.29,107.608 232.307,109.886 232.316,111.479 C232.324,113.071 232.415,115.209 232.518,116.229 C232.633,117.37 232.722,122.89 232.749,130.583 C232.775,138.038 232.859,143.386 232.957,143.833 C233.048,144.246 233.132,146.712 233.143,149.314 C233.158,152.586 233.238,154.462 233.402,155.397 C233.533,156.141 233.686,157.987 233.743,159.5 C233.799,161.012 233.959,163.3 234.098,164.583 C234.372,167.104 234.537,170.967 234.821,181.5 C234.921,185.213 235.045,188.4 235.096,188.583 C235.147,188.767 235.222,191.129 235.262,193.833 C235.313,197.296 235.412,199.165 235.595,200.153 C235.795,201.234 235.843,202.456 235.802,205.486 C235.774,207.648 235.759,210.692 235.771,212.25 C235.782,213.808 235.791,215.346 235.79,215.667 C235.789,215.987 235.806,219.335 235.827,223.106 C235.855,228.119 235.809,230.214 235.657,230.897 C235.496,231.616 235.488,232.356 235.624,234.124 C235.843,236.976 235.67,260.829 235.409,263.757 C235.335,264.587 235.367,265.646 235.493,266.534 C235.653,267.66 235.654,268.772 235.497,271.693 C235.324,274.926 235.334,275.801 235.572,278.333 C235.79,280.65 235.81,281.57 235.67,282.808 C235.572,283.666 235.531,284.716 235.579,285.142 C235.626,285.568 235.705,288.017 235.755,290.583 C235.805,293.15 235.941,297.58 236.057,300.427 L236.268,305.605 L236.837,306.397 C237.34,307.097 237.402,307.298 237.374,308.136 C237.357,308.657 237.502,310.099 237.698,311.34 C238.191,314.471 237.959,315.009 235.621,316.16 L234.579,316.673 L232.165,316.555 C227.95,316.348 228.104,316.333 227.383,317.021 C226.363,317.996 225.845,317.933 224.309,316.646 C222.86,315.433 222.227,312.609 222.889,310.314 C223.317,308.829 223.667,306.267 223.667,304.607 C223.667,303.747 223.788,302.378 223.936,301.563 C224.267,299.745 224.282,298.458 224.019,294.5 C223.651,288.974 223.691,283.344 224.153,275.417 C224.252,273.72 224.249,272.204 224.146,271.25 C224.054,270.393 223.993,264.28 224.005,257 C224.028,243.295 224.026,239.606 223.994,230.167 C223.98,226.14 224.061,222.815 224.234,220.333 C224.433,217.466 224.48,214.701 224.43,208.583 C224.394,204.183 224.312,194.058 224.249,186.083 C224.121,170.021 224.101,168.92 223.925,167.816 C223.839,167.273 223.888,166.745 224.093,166.013 C224.335,165.15 224.362,164.657 224.253,163.031 C224.079,160.443 224.125,159.492 224.492,158 C225.043,155.763 225.09,149.487 224.562,148.633 C224.216,148.072 224.083,149.057 224.08,152.218 C224.078,154.08 223.99,156.03 223.882,156.583 C223.776,157.133 223.642,158.296 223.584,159.167 C223.527,160.037 223.341,161.425 223.169,162.25 C222.998,163.075 222.775,164.837 222.672,166.167 C222.362,170.201 221.872,172.487 220.921,174.325 C220.785,174.589 220.451,175.617 220.18,176.611 C219.649,178.554 219.12,180.147 217.998,183.167 C217.606,184.221 216.973,185.983 216.591,187.083 C216.209,188.183 215.625,189.683 215.294,190.417 C214.963,191.15 214.424,192.403 214.095,193.202 C213.301,195.131 211.323,198.698 209.494,201.5 C209.105,202.096 208.356,203.301 207.829,204.178 C207.303,205.055 206.43,206.367 205.89,207.094 C204.711,208.681 202.538,212.082 201.94,213.276 C201.704,213.749 201.122,214.574 200.648,215.11 C200.174,215.645 199.233,216.929 198.558,217.963 C197.297,219.893 193.703,224.22 192.953,224.711 C192.722,224.862 191.995,225.66 191.337,226.484 C190.679,227.308 189.791,228.208 189.362,228.485 C188.934,228.762 187.533,229.776 186.25,230.737 C184.967,231.699 183.317,232.84 182.583,233.273 C181.85,233.705 180.817,234.39 180.287,234.793 C179.757,235.196 178.351,235.966 177.162,236.502 C175.972,237.039 174.774,237.638 174.499,237.834 C173.623,238.458 170.197,239.993 168.867,240.357 C168.161,240.551 166.8,241.044 165.843,241.452 C164.885,241.861 163.46,242.336 162.676,242.507 C161.892,242.678 160.932,242.931 160.543,243.068 C158.371,243.835 155.898,244.356 153.744,244.5 C152.506,244.583 151.43,244.69 151.352,244.738 C151.022,244.942 143.157,245.833 141.686,245.833 C139.264,245.833 139.178,245.945 138.854,249.5 C138.572,252.583 138.615,264.147 138.916,266.167 C138.964,266.487 139.118,268.662 139.26,271 C139.745,279.012 139.826,280.085 139.998,280.798 C140.104,281.234 140.2,285.561 140.246,291.884 C140.287,297.588 140.392,302.629 140.481,303.086 C140.57,303.543 140.737,304.954 140.853,306.221 C141.096,308.874 141.175,309 142.579,309 C143.864,309.001 146.949,308.682 148.25,308.415 C149.6,308.138 153.971,307.57 155.917,307.419 C156.65,307.362 157.887,307.213 158.667,307.088 C163.757,306.268 165.557,306.572 166.795,308.461 C167.284,309.208 167.877,318.139 167.518,319.34 C166.855,321.552 163.649,322.827 161.202,321.851 C160.718,321.658 159.998,321.5 159.604,321.5 C159.21,321.5 158.144,321.388 157.235,321.251 C155.137,320.935 153.864,320.938 152.5,321.263 C151.154,321.585 149.973,321.607 148.827,321.332 C147.143,320.928 142.707,321.478 142.082,322.168 C141.813,322.465 141.812,322.575 142.07,323.977 C142.277,325.102 142.319,325.955 142.24,327.443 C142.163,328.906 142.204,329.8 142.401,330.897 C142.547,331.711 142.667,332.879 142.667,333.493 C142.667,334.226 142.838,335.22 143.167,336.39 C143.524,337.662 143.667,338.538 143.669,339.46 C143.67,340.17 143.784,341.162 143.924,341.667 C144.842,344.995 143.945,348.556 141.917,349.63 C141.06,350.083 137.946,349.825 135.495,349.097 C135.057,348.967 133.998,348.808 133.141,348.743 C131.234,348.599 130.974,348.454 129.891,346.938 C128.655,345.208 128.675,345.376 128.672,336.747 C128.67,332.532 128.652,328.521 128.631,327.833 C128.61,327.146 128.655,326.096 128.731,325.5 C128.907,324.123 128.653,323.062 128.084,322.803 C127.628,322.595 117.7,323.047 116.25,323.341 C115.792,323.434 114.817,323.503 114.083,323.494 C110.245,323.445 103.382,323.879 101.56,324.286 C99.216,324.81 97.57,322.844 97.911,319.929 C97.976,319.372 98.087,318.054 98.158,317 C98.339,314.307 99.031,312.48 100.195,311.617 C100.607,311.312 100.946,311.285 104.695,311.254 C106.925,311.236 109.837,311.133 111.167,311.026 C112.496,310.919 114.896,310.753 116.5,310.658 C128.586,309.943 127.837,310.013 128.003,309.576 C128.09,309.348 128.055,308.52 127.915,307.475 C127.779,306.464 127.653,303.611 127.61,300.583 C127.568,297.666 127.422,294.292 127.274,292.833 C127.129,291.412 126.895,288.86 126.754,287.162 C126.613,285.463 126.423,283.813 126.332,283.496 C126.241,283.179 126.166,281.043 126.166,278.751 C126.165,276.459 126.09,274.133 125.998,273.583 C125.887,272.911 125.889,271.791 126.006,270.167 C126.125,268.503 126.126,267.023 126.008,265.417 C125.914,264.133 125.763,261.808 125.672,260.25 C125.582,258.692 125.424,256.742 125.323,255.917 C125.092,254.042 125.037,248.833 125.23,247.163 C125.407,245.641 125.274,245.469 123.865,245.387 C120.925,245.216 116.313,244.777 114.5,244.494 C113.354,244.316 111.592,244.058 110.583,243.922 C107.786,243.543 106.259,243.218 104.222,242.568 C103.198,242.241 101.923,241.878 101.388,241.76 C100.854,241.643 99.367,241.243 98.083,240.873 C96.8,240.502 95.36,240.118 94.884,240.019 C93.83,239.802 90.865,238.812 87.833,237.665 C86.596,237.196 85.096,236.639 84.5,236.426 C81.45,235.335 78.462,233.979 76.265,232.69 C75.632,232.319 74.882,231.965 74.599,231.904 C73.532,231.674 69.194,229.602 67.792,228.652 C66.461,227.751 65.053,227.054 62.217,225.894 C61.579,225.633 60.782,225.108 60.133,224.523 C59.556,224.002 58.673,223.239 58.171,222.829 C57.669,222.419 56.769,221.64 56.171,221.099 C55.573,220.557 54.521,219.67 53.833,219.127 C52.105,217.761 49.166,214.579 48.449,213.297 C48.122,212.713 46.894,211.127 45.719,209.774 C42.116,205.624 40.932,203.666 40.253,200.736 C40.11,200.119 39.741,199.196 39.433,198.683 C38.391,196.947 38.374,196.906 36.482,191.514 C36.115,190.467 35.635,189.305 35.416,188.93 C34.896,188.041 33.894,185.431 33.747,184.583 C33.684,184.217 33.329,183.25 32.96,182.436 C32.246,180.862 31.658,178.454 31.343,175.811 C31.241,174.952 31.088,174.025 31.003,173.75 C30.919,173.475 30.765,172.767 30.662,172.177 C30.559,171.587 30.301,170.762 30.089,170.344 C29.648,169.472 29.497,167.887 29.417,163.25 C29.39,161.692 29.256,159.404 29.12,158.167 C28.843,155.645 28.984,147.095 29.321,146.002 C29.608,145.068 29.844,142.957 30,139.917 C30.178,136.463 30.487,134.791 31.346,132.634 C31.795,131.509 32.087,130.415 32.265,129.2 C32.408,128.219 32.663,126.779 32.83,126 C32.997,125.221 33.186,124.058 33.249,123.417 C33.382,122.077 33.97,120.575 35.072,118.761 C35.487,118.077 36.25,116.67 36.768,115.634 C38.328,112.516 41.389,108 42.343,107.411 C42.439,107.351 42.951,106.653 43.48,105.86 C44.009,105.066 44.976,103.665 45.629,102.745 C46.281,101.826 47.111,100.476 47.474,99.745 C47.836,99.015 48.496,97.998 48.941,97.486 C49.386,96.975 50.197,95.981 50.742,95.278 C51.288,94.575 51.794,94 51.866,94 C51.938,94 52.402,93.453 52.897,92.784 C53.392,92.115 54.048,91.372 54.356,91.132 C54.665,90.892 56.604,89.031 58.667,86.997 C62.107,83.603 63.216,82.657 65.988,80.75 C67.06,80.013 67.994,79.252 69.671,77.75 C71.366,76.232 75.153,73.859 76.878,73.234 C77.681,72.943 78.994,72.332 79.795,71.877 C80.595,71.421 81.7,70.8 82.25,70.496 C82.8,70.192 83.52,69.733 83.85,69.477 C85.724,68.023 91.499,65.598 95.865,64.433 C97.375,64.03 99.337,63.468 100.224,63.183 C101.111,62.899 102.016,62.667 102.234,62.667 C102.452,62.667 103.183,62.562 103.857,62.434 C105.038,62.21 106.519,61.957 109.78,61.422 C110.621,61.284 112.534,61.096 114.03,61.005 C116.92,60.83 119.456,60.591 121.5,60.303 C122.852,60.112 128.012,59.798 129.5,59.816 C130.004,59.822 131.204,59.827 132.167,59.827 C134.047,59.828 136.868,60.084 137.862,60.345 C138.199,60.434 139.361,60.616 140.445,60.751 C141.53,60.886 142.679,61.074 143,61.169 C143.321,61.264 144.549,61.416 145.73,61.508 C146.91,61.599 148.485,61.819 149.23,61.997 C149.974,62.174 151.42,62.508 152.443,62.739 C153.466,62.969 154.854,63.375 155.527,63.64 C156.199,63.905 157.05,64.214 157.417,64.328 C157.783,64.441 158.571,64.746 159.167,65.006 C159.762,65.265 160.972,65.676 161.853,65.918 C165.615,66.95 167.477,67.839 170.237,69.921 C172.564,71.676 174.547,72.779 176.5,73.404 C177.463,73.712 178.683,74.194 179.212,74.475 C180.618,75.222 181.164,74.792 183.146,71.384 C183.456,70.852 184.083,69.779 184.54,69 C184.997,68.221 185.854,66.506 186.445,65.189 C187.805,62.158 190.805,56.303 191.835,54.667 C192.269,53.979 192.934,52.798 193.314,52.041 C193.693,51.285 194.315,50.16 194.694,49.541 C196.304,46.918 197.15,45.337 197.569,44.165 C197.814,43.478 198.61,41.811 199.338,40.46 C200.065,39.109 200.92,37.271 201.237,36.377 C201.554,35.482 202.497,33.257 203.332,31.432 C206.897,23.645 206.751,16.468 202.947,12.528 C200.615,10.113 196.407,10.467 193.469,13.325 C192.33,14.431 192.239,14.983 192.839,17.145 C193.315,18.863 195.041,22.03 196.165,23.25 C199.087,26.418 199.682,28.738 197.864,29.868 C197.114,30.335 188.825,30.551 188.005,30.125 C185.5,28.826 182.85,16.057 184.186,11.726 C185.84,6.361 189.763,2.826 194.97,2.008 C196.132,1.825 197.533,1.603 198.083,1.515 C199.978,1.211 201.399,1.385 203.333,2.16 M126.293,71.003 C125.308,71.077 124.123,71.22 123.66,71.319 C123.196,71.419 121.695,71.5 120.323,71.5 C116.3,71.5 109.969,72.732 104.583,74.562 C103.667,74.874 102.279,75.256 101.5,75.411 C98.516,76.006 93.892,77.348 90.75,78.532 C90.017,78.808 88.681,79.29 87.781,79.603 C84.26,80.828 83.199,81.555 82.586,83.159 C81.884,84.998 81.017,85.532 79.871,84.833 C78.901,84.241 77.93,84.488 76.333,85.731 C75.829,86.124 74.71,86.918 73.847,87.496 C71.381,89.146 67.445,92.977 65.282,95.833 C64.623,96.704 63.653,97.924 63.127,98.544 C62.601,99.164 61.557,100.589 60.808,101.71 C60.059,102.832 59.12,104.115 58.721,104.562 C57.586,105.833 55.502,108.957 54.87,110.333 C53.639,113.016 52.071,116.145 51.313,117.432 C50.438,118.917 49.335,121.554 48.922,123.145 C48.477,124.863 47.747,126.825 46.846,128.728 C45.938,130.646 45.606,131.836 44.821,136 C43.947,140.635 43.779,141.927 43.08,149.417 C42.873,151.629 42.863,152.665 43.02,155.5 C43.126,157.427 43.154,159.644 43.083,160.583 C42.842,163.789 43.047,165.494 44.009,168.279 C44.551,169.85 44.719,170.622 44.836,172.083 C44.999,174.123 45.315,175.384 46.882,180.25 C48.726,185.972 49.829,188.329 52.423,192.083 C52.803,192.633 53.588,193.983 54.167,195.083 C55.892,198.36 57.13,200.185 60.114,203.849 C65.754,210.774 65.497,210.53 70.32,213.525 C73.262,215.351 73.807,215.777 74.86,217.069 C76.672,219.292 79.65,221.485 82.956,223.029 C83.759,223.404 85.57,224.265 86.979,224.942 C89.546,226.176 92.351,227.265 95,228.058 C96.27,228.438 98.448,229.082 102.417,230.25 C103.15,230.466 104.688,230.834 105.833,231.067 C106.979,231.301 108.485,231.638 109.179,231.815 C109.873,231.993 111.336,232.228 112.429,232.337 C113.522,232.447 115.392,232.72 116.583,232.944 C117.775,233.169 119.8,233.421 121.083,233.505 C122.367,233.589 124.092,233.772 124.917,233.912 C128.211,234.469 136.477,234.231 142.551,233.404 C144.184,233.182 146.052,233 146.704,233 C147.875,233 149.027,232.828 152.917,232.075 C154.017,231.861 155.404,231.64 156,231.584 C158.282,231.367 159.542,230.99 162.184,229.735 C163.614,229.056 164.854,228.5 164.939,228.5 C165.192,228.5 169.024,226.18 169.586,225.686 C169.872,225.435 170.663,224.924 171.345,224.549 C172.026,224.174 173.539,223.166 174.706,222.309 C175.874,221.451 177.262,220.469 177.79,220.126 C180.038,218.665 180.993,217.918 182.268,216.623 C184.151,214.711 186.024,213.004 187.536,211.821 C188.787,210.843 189.342,210.179 193.702,204.449 C194.134,203.881 194.875,202.714 195.35,201.856 C195.824,200.998 196.773,199.46 197.458,198.439 C198.798,196.445 201.048,192.122 201.244,191.167 C201.309,190.846 201.725,189.796 202.166,188.833 C203.16,186.667 204.087,184.024 204.338,182.642 C204.442,182.067 204.814,180.694 205.164,179.59 C206.22,176.263 206.623,174.517 206.819,172.417 C207.044,170.002 207.222,168.865 207.666,167 C207.904,165.997 208.057,164.464 208.19,161.75 C208.293,159.642 208.404,157.542 208.435,157.083 C208.637,154.176 208.578,147.211 208.347,146.583 C208.207,146.203 208.048,144.915 207.978,143.583 C207.553,135.559 207.299,132.218 207.02,131 C206.803,130.051 205.313,125.686 204.83,124.583 C204.629,124.125 204.327,123.359 204.16,122.881 C203.993,122.403 203.341,121.128 202.713,120.048 C202.085,118.967 200.886,116.696 200.048,115 C198.265,111.39 197.687,110.462 195.905,108.349 C194.108,106.218 192.967,104.774 192.14,103.583 C191.758,103.033 190.757,101.871 189.917,101 C189.076,100.129 188.211,99.154 187.994,98.833 C186.535,96.676 178.882,89.712 176.284,88.178 C175.524,87.728 174.208,86.825 173.361,86.17 C172.035,85.145 168.316,82.777 164.057,80.244 C160.98,78.414 156.14,76.329 152.311,75.184 C151.061,74.811 149.411,74.237 148.644,73.91 C144.685,72.222 142.572,71.703 138.81,71.496 C137.285,71.412 135.71,71.273 135.31,71.188 C134.262,70.964 128.395,70.844 126.293,71.003 M202.917,84.607 C191.033,85.11 191.946,84.853 193.971,87.122 C194.688,87.926 195.62,89.108 196.043,89.75 C198.087,92.857 198.669,93.587 202.083,97.323 C205.636,101.21 207.728,103.957 210.087,107.833 C210.617,108.704 211.611,110.264 212.297,111.3 C212.983,112.337 214.498,115.074 215.664,117.384 C216.83,119.694 218.091,122.057 218.466,122.636 C218.841,123.215 219.277,124.04 219.435,124.469 C219.594,124.899 220.006,125.97 220.351,126.851 C220.696,127.731 221.091,129.043 221.23,129.767 C221.368,130.491 221.668,131.796 221.895,132.667 C222.123,133.537 222.358,134.662 222.418,135.167 C222.764,138.09 223.941,144.618 224.169,144.884 C224.65,145.443 224.412,138.587 223.58,127.917 C223.063,121.28 222.838,113.949 222.757,101.083 C222.669,87.083 222.355,84.849 220.439,84.587 C219.108,84.405 207.368,84.419 202.917,84.607 M335.5,186.816 C336.554,186.996 338.129,187.229 339,187.335 C342.104,187.71 342.811,187.978 344.667,189.478 C347.467,191.742 349.207,194.523 349.67,197.474 C350.591,203.338 350.381,208.957 349.09,212.961 C348.773,213.945 348.431,215.313 348.331,216 C348.23,216.688 348.021,217.925 347.866,218.75 C347.477,220.813 347.498,228.814 347.898,231.167 C348.08,232.24 348.163,233.716 348.157,235.75 C348.152,237.4 348.155,239.05 348.164,239.417 C348.173,239.783 348.145,241.583 348.102,243.417 C347.991,248.186 347.778,261.144 347.781,262.917 C347.789,266.872 348.013,274.56 348.157,275.75 C348.45,278.192 348.517,280.674 348.325,281.991 C348.182,282.963 348.185,283.724 348.336,285.097 C348.445,286.098 348.561,288.679 348.593,290.833 C348.625,292.987 348.726,295.2 348.817,295.75 C348.908,296.3 349.023,297.425 349.072,298.25 C349.121,299.075 349.238,300.012 349.331,300.332 C349.57,301.154 349.541,302.343 349.262,303.132 C349.132,303.502 348.978,304.168 348.922,304.611 C348.705,306.305 348.636,306.524 348.133,307.097 C346.949,308.444 344.535,309.048 340.977,308.887 C339.697,308.828 337.58,308.869 336.142,308.978 C330.237,309.43 329.117,309.464 325,309.318 C319.156,309.111 315.391,308.883 314.5,308.683 C314.087,308.59 312.977,308.511 312.032,308.507 C309.901,308.498 308.44,308.286 306.083,307.641 C300.694,306.167 299.114,305.51 297.501,304.071 C296.922,303.554 296.087,302.91 295.646,302.638 C292.52,300.715 291.258,293.472 293.477,290.199 C293.831,289.677 294.316,288.864 294.554,288.392 C296.431,284.681 301.982,280.815 308.917,278.388 C310.108,277.971 311.421,277.46 311.833,277.252 C313.405,276.461 317.711,275.128 320.449,274.586 C321.2,274.437 322.325,274.167 322.949,273.985 C324.305,273.591 327.052,273.379 333.417,273.178 C338.669,273.012 338.93,272.961 339.098,272.063 C339.232,271.349 339.078,267.775 338.819,265.583 C338.721,264.758 338.618,262.171 338.589,259.833 C338.56,257.496 338.462,255.021 338.37,254.333 C338.272,253.601 338.247,251.667 338.309,249.667 C338.454,244.987 338.366,238.414 338.132,236.5 C338.025,235.629 337.933,232.892 337.927,230.417 C337.913,224.584 337.99,224.724 335.325,225.663 C334.5,225.954 333.571,226.162 333.083,226.165 C332.17,226.169 330.195,226.606 328.025,227.282 L326.629,227.718 L323.773,227.521 C322.202,227.413 319.979,227.339 318.833,227.356 C317.185,227.382 316.593,227.327 316,227.096 C315.587,226.935 314.462,226.741 313.5,226.664 C306.3,226.094 301.177,221.336 300.133,214.25 L299.789,211.917 L300.724,208.197 C301.862,203.67 302.115,203.161 304.468,200.651 C305.448,199.606 306.712,198.188 307.276,197.5 C309.075,195.309 311.51,193.161 313.52,191.992 C314.196,191.599 315.425,190.882 316.25,190.4 C317.271,189.803 318.202,189.41 319.167,189.167 C319.946,188.971 321.333,188.559 322.25,188.251 C323.167,187.944 324.742,187.533 325.75,187.338 C326.758,187.143 328.258,186.84 329.083,186.665 C330.867,186.286 332.639,186.328 335.5,186.816 M33.342,188.175 C33.839,188.672 33.752,190.059 33.219,190.135 C32.521,190.235 31.981,188.709 32.495,188.089 C32.776,187.75 32.933,187.766 33.342,188.175 M328.583,193.861 C321.883,195.109 320.75,195.74 319.112,199.134 C316.308,204.944 316.896,209.399 321.1,214.203 C324.036,217.559 331.421,218.859 335.516,216.742 C335.795,216.598 336.595,216.37 337.295,216.236 C339.856,215.746 340.735,214.866 343.023,210.496 C343.511,209.564 343.715,208.081 343.607,206.25 C343.435,203.329 343.173,200.871 342.983,200.387 C342.881,200.128 342.619,199.259 342.401,198.454 C341.522,195.215 340.351,194.31 336.506,193.9 C334.147,193.649 329.839,193.627 328.583,193.861 M335.833,279.677 C335.512,279.764 334.537,279.795 333.667,279.744 C332.796,279.693 331.221,279.732 330.167,279.831 C329.112,279.93 327.35,280.082 326.25,280.167 C322.79,280.438 320.006,281.168 315.833,282.902 C313.164,284.01 311.569,286.346 311.698,288.954 C311.833,291.669 314.252,295.444 316.624,296.642 C318.141,297.407 321.439,298.707 322.384,298.911 C322.952,299.034 324.054,299.285 324.833,299.469 C329.154,300.488 333.219,300.666 335.616,299.939 C336.332,299.722 337.221,299.461 337.593,299.359 C339.198,298.917 339.293,298.443 339.195,291.417 C339.155,288.483 339.138,284.806 339.159,283.245 C339.205,279.741 339.153,279.626 337.481,279.56 C336.895,279.536 336.154,279.589 335.833,279.677" id="path1" fill-opacity="0"></path>
            <path d="M198.083,1.515 C197.533,1.603 196.132,1.825 194.97,2.008 C189.763,2.826 185.84,6.361 184.186,11.726 C182.85,16.057 185.5,28.826 188.005,30.125 C188.825,30.551 197.114,30.335 197.864,29.868 C199.682,28.738 199.087,26.418 196.165,23.25 C195.041,22.03 193.315,18.863 192.839,17.145 C192.089,14.441 192.747,13.219 195.75,11.733 C202.821,8.235 207.723,16.09 205.162,26.813 C204.983,27.561 204.205,29.525 203.332,31.432 C202.497,33.257 201.554,35.482 201.237,36.377 C200.92,37.271 200.065,39.109 199.338,40.46 C198.61,41.811 197.814,43.478 197.569,44.165 C197.15,45.337 196.304,46.918 194.694,49.541 C194.315,50.16 193.693,51.285 193.314,52.041 C192.934,52.798 192.269,53.979 191.835,54.667 C190.805,56.303 187.805,62.158 186.445,65.189 C185.854,66.506 184.997,68.221 184.54,69 C184.083,69.779 183.456,70.852 183.146,71.384 C181.164,74.792 180.618,75.222 179.212,74.475 C178.683,74.194 177.463,73.712 176.5,73.404 C174.547,72.779 172.564,71.676 170.237,69.921 C167.477,67.839 165.615,66.95 161.853,65.918 C160.972,65.676 159.762,65.265 159.167,65.006 C158.571,64.746 157.783,64.441 157.417,64.328 C157.05,64.214 156.199,63.905 155.527,63.64 C154.854,63.375 153.466,62.969 152.443,62.739 C151.42,62.508 149.974,62.174 149.23,61.997 C148.485,61.819 146.91,61.599 145.73,61.508 C144.549,61.416 143.321,61.264 143,61.169 C142.679,61.074 141.53,60.886 140.445,60.751 C139.361,60.616 138.199,60.434 137.862,60.345 C136.868,60.084 134.047,59.828 132.167,59.827 C131.204,59.827 130.004,59.822 129.5,59.816 C128.012,59.798 122.852,60.112 121.5,60.303 C119.456,60.591 116.92,60.83 114.03,61.005 C112.534,61.096 110.621,61.284 109.78,61.422 C106.519,61.957 105.038,62.21 103.857,62.434 C103.183,62.562 102.452,62.667 102.234,62.667 C102.016,62.667 101.111,62.899 100.224,63.183 C99.337,63.468 97.375,64.03 95.865,64.433 C91.499,65.598 85.724,68.023 83.85,69.477 C83.52,69.733 82.8,70.192 82.25,70.496 C81.7,70.8 80.595,71.421 79.795,71.877 C78.994,72.332 77.681,72.943 76.878,73.234 C75.153,73.859 71.366,76.232 69.671,77.75 C67.994,79.252 67.06,80.013 65.988,80.75 C63.216,82.657 62.107,83.603 58.667,86.997 C56.604,89.031 54.665,90.892 54.356,91.132 C54.048,91.372 53.392,92.115 52.897,92.784 C52.402,93.453 51.938,94 51.866,94 C51.794,94 51.288,94.575 50.742,95.278 C50.197,95.981 49.386,96.975 48.941,97.486 C48.496,97.998 47.836,99.015 47.474,99.745 C47.111,100.476 46.281,101.826 45.629,102.745 C44.976,103.665 44.009,105.066 43.48,105.86 C42.951,106.653 42.439,107.351 42.343,107.411 C41.389,108 38.328,112.516 36.768,115.634 C36.25,116.67 35.487,118.077 35.072,118.761 C33.97,120.575 33.382,122.077 33.249,123.417 C33.186,124.058 32.997,125.221 32.83,126 C32.663,126.779 32.408,128.219 32.265,129.2 C32.087,130.415 31.795,131.509 31.346,132.634 C30.487,134.791 30.178,136.463 30,139.917 C29.844,142.957 29.608,145.068 29.321,146.002 C28.984,147.095 28.843,155.645 29.12,158.167 C29.256,159.404 29.39,161.692 29.417,163.25 C29.497,167.887 29.648,169.472 30.089,170.344 C30.301,170.762 30.559,171.587 30.662,172.177 C30.765,172.767 30.919,173.475 31.003,173.75 C31.088,174.025 31.241,174.952 31.343,175.811 C31.658,178.454 32.246,180.862 32.96,182.436 C33.329,183.25 33.684,184.217 33.747,184.583 C33.894,185.431 34.896,188.041 35.416,188.93 C35.635,189.305 36.115,190.467 36.482,191.514 C38.374,196.906 38.391,196.947 39.433,198.683 C39.741,199.196 40.11,200.119 40.253,200.736 C40.932,203.666 42.116,205.624 45.719,209.774 C46.894,211.127 48.122,212.713 48.449,213.297 C49.166,214.579 52.105,217.761 53.833,219.127 C54.521,219.67 55.573,220.557 56.171,221.099 C56.769,221.64 57.669,222.419 58.171,222.829 C58.673,223.239 59.556,224.002 60.133,224.523 C60.782,225.108 61.579,225.633 62.217,225.894 C65.053,227.054 66.461,227.751 67.792,228.652 C69.194,229.602 73.532,231.674 74.599,231.904 C74.882,231.965 75.632,232.319 76.265,232.69 C78.462,233.979 81.45,235.335 84.5,236.426 C85.096,236.639 86.596,237.196 87.833,237.665 C90.865,238.812 93.83,239.802 94.884,240.019 C95.36,240.118 96.8,240.502 98.083,240.873 C99.367,241.243 100.854,241.643 101.388,241.76 C101.923,241.878 103.198,242.241 104.222,242.568 C106.259,243.218 107.786,243.543 110.583,243.922 C111.592,244.058 113.354,244.316 114.5,244.494 C116.313,244.777 120.925,245.216 123.865,245.387 C125.274,245.469 125.407,245.641 125.23,247.163 C125.037,248.833 125.092,254.042 125.323,255.917 C125.424,256.742 125.582,258.692 125.672,260.25 C125.763,261.808 125.914,264.133 126.008,265.417 C126.126,267.023 126.125,268.503 126.006,270.167 C125.889,271.791 125.887,272.911 125.998,273.583 C126.09,274.133 126.165,276.459 126.166,278.751 C126.166,281.043 126.241,283.179 126.332,283.496 C126.423,283.813 126.613,285.463 126.754,287.162 C126.895,288.86 127.129,291.412 127.274,292.833 C127.422,294.292 127.568,297.666 127.61,300.583 C127.653,303.611 127.779,306.464 127.915,307.475 C128.055,308.52 128.09,309.348 128.003,309.576 C127.837,310.013 128.586,309.943 116.5,310.658 C114.896,310.753 112.496,310.919 111.167,311.026 C109.837,311.133 106.925,311.236 104.695,311.254 C100.946,311.285 100.607,311.312 100.195,311.617 C99.031,312.48 98.339,314.307 98.158,317 C98.087,318.054 97.976,319.372 97.911,319.929 C97.57,322.844 99.216,324.81 101.56,324.286 C103.382,323.879 110.245,323.445 114.083,323.494 C114.817,323.503 115.792,323.434 116.25,323.341 C117.7,323.047 127.628,322.595 128.084,322.803 C128.653,323.062 128.907,324.123 128.731,325.5 C128.655,326.096 128.61,327.146 128.631,327.833 C128.652,328.521 128.67,332.532 128.672,336.747 C128.675,345.376 128.655,345.208 129.891,346.938 C130.974,348.454 131.234,348.599 133.141,348.743 C133.998,348.808 135.057,348.967 135.495,349.097 C137.946,349.825 141.06,350.083 141.917,349.63 C143.945,348.556 144.842,344.995 143.924,341.667 C143.784,341.162 143.67,340.17 143.669,339.46 C143.667,338.538 143.524,337.662 143.167,336.39 C142.838,335.22 142.667,334.226 142.667,333.493 C142.667,332.879 142.547,331.711 142.401,330.897 C142.204,329.8 142.163,328.906 142.24,327.443 C142.319,325.955 142.277,325.102 142.07,323.977 C141.812,322.575 141.813,322.465 142.082,322.168 C142.707,321.478 147.143,320.928 148.827,321.332 C149.973,321.607 151.154,321.585 152.5,321.263 C153.864,320.938 155.137,320.935 157.235,321.251 C158.144,321.388 159.21,321.5 159.604,321.5 C159.998,321.5 160.718,321.658 161.202,321.851 C163.649,322.827 166.855,321.552 167.518,319.34 C167.877,318.139 167.284,309.208 166.795,308.461 C165.557,306.572 163.757,306.268 158.667,307.088 C157.887,307.213 156.65,307.362 155.917,307.419 C153.971,307.57 149.6,308.138 148.25,308.415 C146.949,308.682 143.864,309.001 142.579,309 C141.175,309 141.096,308.874 140.853,306.221 C140.737,304.954 140.57,303.543 140.481,303.086 C140.392,302.629 140.287,297.588 140.246,291.884 C140.2,285.561 140.104,281.234 139.998,280.798 C139.826,280.085 139.745,279.012 139.26,271 C139.118,268.662 138.964,266.487 138.916,266.167 C138.615,264.147 138.572,252.583 138.854,249.5 C139.178,245.945 139.264,245.833 141.686,245.833 C143.157,245.833 151.022,244.942 151.352,244.738 C151.43,244.69 152.506,244.583 153.744,244.5 C155.898,244.356 158.371,243.835 160.543,243.068 C160.932,242.931 161.892,242.678 162.676,242.507 C163.46,242.336 164.885,241.861 165.843,241.452 C166.8,241.044 168.161,240.551 168.867,240.357 C170.197,239.993 173.623,238.458 174.499,237.834 C174.774,237.638 175.972,237.039 177.162,236.502 C178.351,235.966 179.757,235.196 180.287,234.793 C180.817,234.39 181.85,233.705 182.583,233.273 C183.317,232.84 184.967,231.699 186.25,230.737 C187.533,229.776 188.934,228.762 189.362,228.485 C189.791,228.208 190.679,227.308 191.337,226.484 C191.995,225.66 192.722,224.862 192.953,224.711 C193.703,224.22 197.297,219.893 198.558,217.963 C199.233,216.929 200.174,215.645 200.648,215.11 C201.122,214.574 201.704,213.749 201.94,213.276 C202.538,212.082 204.711,208.681 205.89,207.094 C206.43,206.367 207.303,205.055 207.829,204.178 C208.356,203.301 209.105,202.096 209.494,201.5 C211.323,198.698 213.301,195.131 214.095,193.202 C214.424,192.403 214.963,191.15 215.294,190.417 C215.625,189.683 216.209,188.183 216.591,187.083 C216.973,185.983 217.606,184.221 217.998,183.167 C219.12,180.147 219.649,178.554 220.18,176.611 C220.451,175.617 220.785,174.589 220.921,174.325 C221.872,172.487 222.362,170.201 222.672,166.167 C222.775,164.837 222.998,163.075 223.169,162.25 C223.341,161.425 223.527,160.037 223.584,159.167 C223.642,158.296 223.776,157.133 223.882,156.583 C223.99,156.03 224.078,154.08 224.08,152.218 C224.083,149.057 224.216,148.072 224.562,148.633 C225.09,149.487 225.043,155.763 224.492,158 C224.125,159.492 224.079,160.443 224.253,163.031 C224.362,164.657 224.335,165.15 224.093,166.013 C223.888,166.745 223.839,167.273 223.925,167.816 C224.101,168.92 224.121,170.021 224.249,186.083 C224.312,194.058 224.394,204.183 224.43,208.583 C224.48,214.701 224.433,217.466 224.234,220.333 C224.061,222.815 223.98,226.14 223.994,230.167 C224.026,239.606 224.028,243.295 224.005,257 C223.993,264.28 224.054,270.393 224.146,271.25 C224.249,272.204 224.252,273.72 224.153,275.417 C223.691,283.344 223.651,288.974 224.019,294.5 C224.282,298.458 224.267,299.745 223.936,301.563 C223.788,302.378 223.667,303.747 223.667,304.607 C223.667,306.267 223.317,308.829 222.889,310.314 C222.227,312.609 222.86,315.433 224.309,316.646 C225.845,317.933 226.363,317.996 227.383,317.021 C228.104,316.333 227.95,316.348 232.165,316.555 L234.579,316.673 L235.621,316.16 C237.959,315.009 238.191,314.471 237.698,311.34 C237.502,310.099 237.357,308.657 237.374,308.136 C237.402,307.298 237.34,307.097 236.837,306.397 L236.268,305.605 L236.057,300.427 C235.941,297.58 235.805,293.15 235.755,290.583 C235.705,288.017 235.626,285.568 235.579,285.142 C235.531,284.716 235.572,283.666 235.67,282.808 C235.81,281.57 235.79,280.65 235.572,278.333 C235.334,275.801 235.324,274.926 235.497,271.693 C235.654,268.772 235.653,267.66 235.493,266.534 C235.367,265.646 235.335,264.587 235.409,263.757 C235.67,260.829 235.843,236.976 235.624,234.124 C235.488,232.356 235.496,231.616 235.657,230.897 C235.809,230.214 235.855,228.119 235.827,223.106 C235.806,219.335 235.789,215.987 235.79,215.667 C235.791,215.346 235.782,213.808 235.771,212.25 C235.759,210.692 235.774,207.648 235.802,205.486 C235.843,202.456 235.795,201.234 235.595,200.153 C235.412,199.165 235.313,197.296 235.262,193.833 C235.222,191.129 235.147,188.767 235.096,188.583 C235.045,188.4 234.921,185.213 234.821,181.5 C234.537,170.967 234.372,167.104 234.098,164.583 C233.959,163.3 233.799,161.012 233.743,159.5 C233.686,157.987 233.533,156.141 233.402,155.397 C233.238,154.462 233.158,152.586 233.143,149.314 C233.132,146.712 233.048,144.246 232.957,143.833 C232.859,143.386 232.775,138.038 232.749,130.583 C232.722,122.89 232.633,117.37 232.518,116.229 C232.415,115.209 232.324,113.071 232.316,111.479 C232.307,109.886 232.29,107.608 232.277,106.417 C232.233,102.264 232.526,96.646 232.793,96.544 C233.273,96.36 236.578,101.234 237.95,104.15 C238.442,105.196 239.43,106.883 240.144,107.9 C240.859,108.918 241.661,110.125 241.927,110.583 C242.193,111.042 242.882,111.959 243.459,112.623 C244.036,113.286 245.231,114.936 246.115,116.289 C247.725,118.755 249.12,120.544 251.178,122.78 C252.415,124.123 253.3,125.683 253.814,127.424 C254.524,129.83 256.431,130.424 261.989,129.97 C263.911,129.813 264.647,129.83 266.921,130.081 L269.594,130.377 L270.281,130.027 C271.551,129.379 272.274,128.095 273.908,123.583 C274.496,121.961 276.141,117.827 277.158,115.417 C277.506,114.592 278.065,113.167 278.401,112.25 C279.483,109.295 279.867,108.491 281.135,106.52 C281.82,105.455 282.74,103.822 283.179,102.892 C284.041,101.066 284.231,100.83 284.474,101.287 C284.888,102.064 285.221,110.051 285.243,119.75 C285.261,127.713 284.992,144.859 284.832,145.917 C284.677,146.945 284.645,148.932 284.624,158.917 C284.621,160.2 284.666,162.75 284.722,164.583 C284.785,166.611 284.758,168.294 284.654,168.88 C284.45,170.034 284.402,181.21 284.584,185.333 C284.677,187.456 284.653,188.658 284.495,189.75 C284.362,190.67 284.264,193.246 284.242,196.417 C284.211,200.919 284.006,204.252 283.733,204.694 C283.688,204.768 283.575,205.973 283.483,207.372 C283.384,208.882 283.152,210.632 282.913,211.675 C282.517,213.404 282.252,215.966 281.992,220.583 C281.92,221.867 281.808,223.492 281.743,224.196 C281.48,227.042 282.526,228.021 285.79,227.986 C286.868,227.974 288.425,227.958 289.25,227.951 C290.075,227.943 291.688,227.969 292.833,228.01 C295.22,228.094 295.896,227.861 296.902,226.609 L297.417,225.968 L297.417,220.109 C297.417,216.021 297.484,213.847 297.638,212.917 C297.812,211.866 297.822,210.992 297.685,208.799 C297.562,206.841 297.563,205.583 297.688,204.563 C297.835,203.364 297.82,202.923 297.601,202.015 C297.227,200.464 297.017,194.676 297.208,191.224 C297.299,189.569 297.306,186.193 297.225,183 C297.149,180.021 297.082,175.746 297.076,173.5 C297.071,171.254 297,168.667 296.919,167.75 C296.838,166.833 296.754,163.196 296.731,159.667 C296.709,156.137 296.645,151.45 296.588,149.25 C296.532,147.05 296.463,142.887 296.436,140 C296.403,136.581 296.315,134.488 296.184,134 C295.951,133.13 295.699,124.078 295.675,115.667 C295.658,110.024 295.87,106.108 296.419,101.917 C296.712,99.684 296.979,94.831 297.481,82.667 C297.905,72.362 297.764,71.988 293.385,71.859 C289.822,71.755 288.138,72.939 287.324,76.12 C286.993,77.413 286.484,78.444 285.646,79.517 C285.388,79.848 284.726,81.298 284.175,82.741 C283.617,84.204 282.446,86.738 281.528,88.473 C280.623,90.184 279.633,92.183 279.327,92.917 C279.022,93.65 277.896,96.162 276.825,98.5 C274.551,103.462 274.062,104.604 272.579,108.417 C271.972,109.975 271.324,111.625 271.137,112.083 C270.728,113.091 269.976,114.349 269.245,115.25 C268.948,115.617 268.536,116.313 268.329,116.798 C267.603,118.502 267.181,118.37 265.475,115.901 C264.801,114.927 263.793,113.482 263.233,112.69 C262.674,111.898 262.082,110.987 261.918,110.667 C261.437,109.728 259.74,106.952 259.008,105.908 C258.637,105.378 258.333,104.845 258.333,104.723 C258.333,104.601 256.89,102.327 255.125,99.67 C251.049,93.531 248.67,89.341 247.86,86.876 C247.447,85.616 246.881,84.511 245.765,82.781 C245.269,82.011 244.622,80.902 244.328,80.316 C244.033,79.73 243.244,78.308 242.574,77.157 C241.904,76.006 241.206,74.669 241.023,74.187 C240.539,72.913 240.297,72.607 238.874,71.477 L237.591,70.458 L236.337,70.592 C234.118,70.83 232.99,70.768 232.215,70.365 C231.723,70.109 231.218,70 230.522,70 C229.634,70 229.459,69.94 228.833,69.417 C227.981,68.705 227.73,68.695 226.722,69.334 C224.676,70.631 222.958,70.852 217.627,70.501 C214.713,70.309 214.131,70.315 212.543,70.554 C210.704,70.83 208.232,71.082 205.583,71.263 C204.758,71.319 203.183,71.55 202.083,71.776 C199.368,72.333 194.973,72.656 194.576,72.328 C194.02,71.866 194.344,70.231 195.549,67.417 C196.138,66.042 196.677,64.729 196.747,64.5 C196.817,64.271 197.27,63.258 197.754,62.25 C198.237,61.242 199.084,59.217 199.635,57.75 C200.187,56.283 201.234,53.846 201.962,52.333 C202.691,50.821 203.345,49.396 203.417,49.167 C203.489,48.938 203.959,47.813 204.462,46.667 C204.964,45.521 205.692,43.646 206.079,42.5 C206.466,41.354 206.948,40.094 207.149,39.7 C207.35,39.306 207.745,38.331 208.027,37.533 C208.308,36.736 208.744,35.671 208.995,35.167 C209.586,33.981 210.519,31.093 211.095,28.667 C211.345,27.613 211.837,25.876 212.189,24.807 L212.829,22.864 L212.861,18.89 C212.905,13.301 212.262,10.856 209.779,7.167 C207.041,3.097 202.349,0.83 198.083,1.515 M202.639,3.064 C207.567,4.967 209.987,7.844 211.349,13.417 L211.878,15.583 L211.769,19.202 C211.673,22.365 211.608,22.995 211.249,24.202 C211.023,24.962 210.531,26.708 210.156,28.083 C209.079,32.036 208.305,34.211 206.3,38.917 C205.831,40.017 205.204,41.667 204.907,42.583 C204.209,44.735 202.329,49.222 200.753,52.5 C200.069,53.921 199.142,56.058 198.692,57.25 C198.242,58.442 197.557,60.092 197.17,60.917 C193.571,68.586 192.468,72.426 193.606,73.321 C194.265,73.84 199.492,73.589 202,72.919 C203.006,72.65 204.847,72.434 208.417,72.165 C209.7,72.068 211.571,71.865 212.574,71.713 C214.167,71.473 214.76,71.463 217.241,71.637 C221.036,71.902 222.734,71.886 224.609,71.566 C226.067,71.318 226.259,71.319 227.379,71.586 C228.91,71.95 234.241,72.091 235.861,71.811 C237.505,71.526 239.413,72.755 239.84,74.374 C239.943,74.764 240.424,75.758 240.908,76.583 C241.392,77.408 242.225,78.908 242.758,79.917 C243.292,80.925 244.13,82.341 244.622,83.064 C245.703,84.652 246.207,85.625 246.772,87.214 C247.938,90.496 250.059,94.186 255.418,102.25 C256.271,103.533 257.262,105.071 257.62,105.667 C257.979,106.263 258.799,107.612 259.444,108.667 C260.088,109.721 260.833,110.973 261.099,111.45 C261.861,112.813 265.427,118.028 265.992,118.606 C267.151,119.792 268.611,119.237 269.335,117.333 C269.458,117.013 269.891,116.3 270.298,115.75 C271.21,114.518 272.134,112.702 272.799,110.833 C273.861,107.852 275.22,104.592 277.176,100.333 C278.291,97.904 279.6,95.011 280.085,93.905 C280.569,92.798 281.718,90.436 282.638,88.655 C283.558,86.874 284.69,84.442 285.153,83.25 C285.617,82.058 286.226,80.746 286.507,80.333 C287.283,79.195 287.904,77.898 288.412,76.359 C289.213,73.933 290.247,73.177 292.956,73.035 C294.724,72.943 295.824,73.243 296.282,73.942 C296.586,74.406 296.477,84.277 296.138,86.917 C296.044,87.65 295.94,89.6 295.907,91.25 C295.793,97.015 295.688,98.936 295.343,101.57 C294.382,108.905 294.281,128.482 295.168,135.364 C295.441,137.483 295.462,138.2 295.323,140.698 C295.213,142.681 295.22,144.313 295.345,145.917 C295.446,147.2 295.52,149.225 295.51,150.417 C295.476,154.69 295.623,165.62 295.74,167.5 C295.806,168.554 295.892,171.817 295.933,174.75 C295.973,177.683 296.061,180.683 296.128,181.417 C296.195,182.15 296.194,184.925 296.125,187.583 C295.96,193.98 296.1,200.574 296.432,202.004 C296.629,202.852 296.651,203.422 296.536,204.587 C296.454,205.41 296.444,206.533 296.513,207.083 C296.726,208.78 296.679,211.421 296.404,213.209 C296.186,214.62 296.159,215.814 296.247,220.083 C296.389,227.001 296.396,226.989 292.092,226.75 C289.186,226.588 288.372,226.588 286.16,226.749 C283.512,226.943 282.646,226.279 282.905,224.255 C282.964,223.794 283.08,222.179 283.162,220.667 C283.397,216.326 283.64,213.917 284.075,211.583 C284.297,210.392 284.558,208.442 284.654,207.25 C284.751,206.058 284.947,204.521 285.09,203.833 C285.288,202.883 285.364,201.244 285.405,197 C285.439,193.56 285.54,190.937 285.669,190.167 C285.82,189.261 285.844,187.976 285.755,185.5 C285.572,180.406 285.607,170.076 285.811,168.917 C285.922,168.289 285.948,166.614 285.883,164.417 C285.739,159.6 285.818,147.245 286.003,145.417 C286.087,144.592 286.212,139.192 286.282,133.417 C286.528,112.961 286.185,99.775 285.379,98.694 C284.582,97.625 283.904,98.279 282.591,101.387 C282.055,102.654 280.935,104.829 280.1,106.22 C279.266,107.612 278.38,109.275 278.132,109.917 C277.883,110.558 277.074,112.658 276.332,114.583 C275.591,116.508 274.716,118.721 274.389,119.5 C274.062,120.279 273.536,121.592 273.221,122.417 C270.398,129.799 270.755,129.445 266.667,128.937 C265.33,128.77 264.219,128.758 261.963,128.882 C256.369,129.192 255.405,128.893 254.679,126.625 C253.934,124.303 253.578,123.763 250.459,120.249 C249.749,119.449 248.295,117.472 247.229,115.855 C246.162,114.239 244.906,112.436 244.436,111.848 C243.564,110.755 242.849,109.778 240.901,107.014 C240.292,106.15 239.402,104.613 238.923,103.597 C238.154,101.967 236.774,99.668 235.165,97.333 C234.881,96.921 234.255,95.984 233.775,95.251 C232.64,93.52 231.815,93.124 231.422,94.12 C231.094,94.952 231.057,111.026 231.373,115.417 C231.486,116.994 231.578,123.19 231.599,130.583 C231.633,143.13 231.839,152.216 232.154,155.167 C232.247,156.037 232.368,157.5 232.422,158.417 C232.476,159.333 232.699,162.146 232.917,164.667 C233.288,168.961 233.512,174.032 233.578,179.667 C233.619,183.1 234.283,199.569 234.476,201.917 C234.613,203.591 234.601,223.013 234.447,247.25 C234.273,274.765 234.307,286.487 234.583,293.667 C234.634,294.996 234.711,297.996 234.753,300.333 C234.854,305.851 234.889,306.135 235.593,307.158 C236.124,307.93 236.18,308.141 236.415,310.259 C236.777,313.53 236.767,313.673 236.125,314.282 C235.036,315.315 234.85,315.352 230.954,315.298 C227.794,315.255 227.331,315.284 226.615,315.568 C224.709,316.325 223.255,313.529 224.085,310.705 C224.461,309.427 224.665,307.943 224.925,304.583 C225.06,302.842 225.245,300.779 225.337,300 C225.45,299.039 225.446,297.699 225.326,295.833 C225.037,291.341 224.883,284.785 225.036,283.473 C225.115,282.8 225.136,281.688 225.083,281 C225.03,280.313 225.059,279.225 225.147,278.583 C225.362,277.018 225.414,272.462 225.272,267.583 C225.209,265.383 225.168,259.233 225.183,253.917 C225.197,248.6 225.224,239.037 225.241,232.667 C225.263,224.985 225.341,220.438 225.475,219.167 C225.674,217.282 225.666,212.554 225.422,185.75 C225.25,166.941 225.377,159.474 225.906,157.167 C226.142,156.138 226.178,155.356 226.113,152.75 C225.993,147.942 225.695,141.389 225.504,139.379 C225.41,138.391 225.333,136.946 225.333,136.167 C225.333,135.387 225.15,132.762 224.926,130.333 C224.273,123.237 223.847,111.893 223.757,99.167 C223.721,94.079 223.651,89.804 223.602,89.667 C223.553,89.529 223.402,88.537 223.266,87.462 C222.877,84.387 222.407,83.636 220.75,83.44 C219.311,83.269 205.576,83.307 202,83.491 C200.121,83.588 196.933,83.711 194.917,83.764 C189.804,83.898 188.865,84.538 191.3,86.227 C192.32,86.936 194.07,88.824 195.182,90.417 C197.582,93.854 198.089,94.508 199.836,96.417 C203.947,100.908 207.045,104.853 209.1,108.216 C209.896,109.518 211.09,111.408 211.753,112.417 C212.959,114.249 215.057,118.261 216.096,120.721 C216.399,121.438 216.828,122.264 217.051,122.555 C218.036,123.848 219.678,127.718 220.086,129.713 C220.222,130.375 220.481,131.479 220.662,132.167 C220.843,132.854 221.103,134.204 221.24,135.167 C221.376,136.129 221.679,138.117 221.912,139.583 C222.881,145.682 223.164,152.864 222.593,156.917 C222.452,157.925 222.264,159.425 222.177,160.25 C221.785,163.956 221.143,169.338 220.984,170.25 C220.76,171.528 218.611,178.19 217.004,182.583 C216.534,183.867 215.937,185.517 215.676,186.25 C213.106,193.475 210.845,197.661 203.883,208.083 C202.781,209.733 201.56,211.608 201.171,212.25 C200.782,212.892 200.033,213.979 199.507,214.667 C198.98,215.354 198.032,216.704 197.4,217.665 C196.269,219.385 195.684,220.072 192.477,223.443 C191.592,224.374 190.548,225.559 190.157,226.076 C189.659,226.736 188.871,227.416 187.515,228.356 C186.453,229.093 185.021,230.138 184.333,230.679 C183.646,231.22 182.633,231.901 182.083,232.191 C181.533,232.481 180.558,233.059 179.917,233.476 C178.731,234.247 175.76,235.865 172.005,237.784 C170.862,238.368 169.174,239.078 168.255,239.36 C167.336,239.643 165.908,240.158 165.083,240.506 C164.258,240.854 162.796,241.328 161.833,241.56 C160.871,241.791 159.108,242.246 157.917,242.57 C156.593,242.931 155.166,243.199 154.25,243.259 C153.425,243.314 152.15,243.463 151.417,243.591 C149.384,243.945 145.551,244.334 142.565,244.489 C139.062,244.671 138.45,244.943 137.992,246.521 C137.722,247.448 137.414,252.711 137.441,255.917 C137.499,262.81 137.62,265.602 138.186,273.167 C138.286,274.496 138.385,276.602 138.406,277.847 C138.428,279.092 138.492,280.186 138.55,280.279 C138.818,280.714 138.99,285.47 139.012,293.083 C139.026,297.667 139.099,301.904 139.175,302.5 C139.25,303.096 139.4,304.671 139.507,306 C139.724,308.686 139.864,309.325 140.33,309.747 C141.073,310.419 144.933,310.417 148.25,309.743 C148.892,309.612 151.104,309.319 153.167,309.091 C155.229,308.863 158.342,308.476 160.083,308.232 C164.842,307.562 165.767,307.97 166.014,310.845 C166.37,314.992 166.381,318.883 166.037,319.5 C165.391,320.661 163.304,321.179 161.568,320.609 C161.118,320.461 160,320.262 159.083,320.167 C158.167,320.071 156.755,319.917 155.947,319.824 C154.456,319.654 154.223,319.67 152.003,320.107 C150.969,320.31 150.508,320.318 149.293,320.152 C146.232,319.734 142.132,320.344 141.104,321.371 L140.625,321.849 L140.771,323.383 C140.851,324.227 140.892,325.862 140.862,327.018 C140.827,328.379 140.897,329.64 141.061,330.601 C141.201,331.416 141.356,332.758 141.406,333.583 C141.462,334.511 141.688,335.743 141.999,336.813 C142.381,338.131 142.5,338.88 142.5,339.956 C142.5,340.733 142.62,341.829 142.767,342.393 C143.469,345.091 142.669,347.874 141.062,348.318 C140.447,348.488 140.368,348.478 136.417,347.759 C135.133,347.526 133.603,347.334 133.016,347.334 C131.995,347.333 131.922,347.305 131.339,346.692 C130.089,345.379 130.086,345.363 130.057,339.583 C129.958,319.912 130.228,321.125 126.03,321.485 C124.776,321.592 122.212,321.756 120.333,321.849 C118.454,321.941 115.604,322.086 114,322.171 C112.396,322.255 109.283,322.404 107.083,322.501 C104.883,322.598 102.521,322.779 101.833,322.904 C99.668,323.296 99.069,322.643 99.247,320.083 C99.789,312.305 99.623,312.551 104.333,312.525 C107.406,312.509 109.46,312.409 116.417,311.936 C122.658,311.512 125.867,311.331 127.138,311.332 C128.279,311.333 128.393,311.3 128.87,310.823 L129.38,310.312 L129.266,308.531 C129.203,307.551 129.085,305.7 129.003,304.417 C128.921,303.133 128.847,300.808 128.837,299.25 C128.827,297.692 128.75,295.629 128.665,294.667 C128.581,293.704 128.394,291.417 128.251,289.583 C128.108,287.75 127.883,285.387 127.751,284.333 C127.439,281.828 127.118,271.958 127.257,269.13 C127.32,267.842 127.287,266.08 127.178,264.917 C127.074,263.817 126.922,261.642 126.839,260.083 C126.756,258.525 126.613,256.725 126.521,256.083 C126.186,253.759 126.129,250.015 126.408,248.697 C127.247,244.741 126.791,244.166 122.667,243.974 C118.243,243.769 115.293,243.541 114.667,243.356 C114.346,243.261 112.911,243.03 111.478,242.842 C109.08,242.528 105.796,241.933 105.522,241.764 C105.27,241.608 95.038,238.667 94.748,238.667 C94.232,238.667 90.167,237.281 87.484,236.191 C85.871,235.536 84.461,235 84.35,235 C84.171,235 83.17,234.59 79.583,233.048 C79.033,232.811 78.021,232.301 77.333,231.913 C76.646,231.525 74.996,230.779 73.667,230.256 C71.012,229.211 69.195,228.282 67.917,227.318 C67.458,226.972 66.454,226.42 65.685,226.091 C62.442,224.703 60.194,223.177 56.597,219.922 C55.856,219.251 54.769,218.32 54.181,217.851 C52.818,216.766 50.939,214.689 49.489,212.667 C48.29,210.994 47.509,210.022 45.979,208.303 C43.697,205.738 42.001,202.907 41.47,200.771 C41.264,199.948 40.754,198.698 40.168,197.583 C39.592,196.488 38.824,194.614 38.259,192.927 C37.74,191.374 36.948,189.311 36.5,188.343 C36.051,187.375 35.453,185.779 35.17,184.795 C34.887,183.811 34.353,182.245 33.984,181.314 C33.269,179.508 32.596,177.114 32.421,175.75 C32.209,174.093 31.503,170.729 31.171,169.794 C30.809,168.774 30.495,165.131 30.549,162.583 C30.565,161.85 30.466,160.125 30.331,158.75 C29.968,155.085 30.038,148.827 30.469,146.24 C30.652,145.146 30.884,143.05 30.985,141.583 C31.302,136.983 31.586,135.269 32.419,132.919 C32.918,131.514 33.284,130.087 33.504,128.691 C33.687,127.532 33.986,125.937 34.168,125.146 C34.351,124.356 34.502,123.493 34.504,123.229 C34.51,122.357 35.285,120.527 36.575,118.337 C37.275,117.148 38.006,115.817 38.198,115.379 C38.95,113.67 40.551,111.178 41.869,109.667 C42.629,108.796 43.775,107.321 44.417,106.39 C45.058,105.458 46.09,103.984 46.709,103.114 C47.328,102.245 48.09,101.02 48.401,100.392 C49.474,98.229 52.521,94.683 57.667,89.61 C63.181,84.174 63.992,83.44 65.812,82.247 C66.762,81.623 68.562,80.258 69.812,79.213 C72.69,76.805 75.162,75.155 76.885,74.49 C79.098,73.637 83.28,71.407 84.667,70.34 C85.576,69.641 86.747,69.035 88.917,68.142 C92.804,66.54 94.374,65.99 97.13,65.26 C98.663,64.855 100.251,64.403 100.661,64.256 C101.07,64.11 102.082,63.883 102.911,63.753 C103.739,63.623 104.829,63.443 105.333,63.353 C110.682,62.401 112.196,62.179 113.917,62.093 C116.33,61.972 119.111,61.721 121.577,61.403 C122.581,61.273 124.269,61.165 125.327,61.163 C126.384,61.161 127.547,61.09 127.909,61.006 C128.969,60.76 136.09,61.084 138.333,61.481 C142.593,62.233 144.32,62.49 145.75,62.584 C148.832,62.787 156.183,64.747 158.804,66.065 C159.232,66.281 160.543,66.732 161.717,67.067 C165.624,68.182 166.701,68.709 169.885,71.062 C172.065,72.673 173.695,73.569 175.833,74.332 C176.887,74.709 178.242,75.313 178.843,75.675 C180.701,76.794 181.187,76.621 182.615,74.333 C185.436,69.816 186.554,67.748 187.998,64.374 C188.479,63.251 189.134,61.901 189.454,61.374 C189.774,60.848 190.397,59.65 190.838,58.713 C191.279,57.777 192.052,56.344 192.556,55.529 C193.06,54.714 193.822,53.351 194.25,52.5 C194.678,51.649 195.423,50.307 195.907,49.518 C197.547,46.841 198.125,45.753 198.573,44.5 C198.818,43.813 199.571,42.188 200.246,40.89 C200.921,39.592 201.811,37.642 202.223,36.557 C202.636,35.471 203.582,33.271 204.326,31.667 C205.952,28.158 206.259,27.211 206.588,24.688 C206.726,23.622 206.907,22.337 206.989,21.833 C207.191,20.584 206.508,16.57 205.833,15.044 C203.724,10.277 199.653,8.548 195.444,10.634 C193.949,11.375 192.183,12.83 191.74,13.685 C190.717,15.665 192.621,20.602 195.944,24.583 C197.382,26.306 197.834,27.094 197.831,27.868 C197.825,29.147 197.495,29.24 192.714,29.305 L188.677,29.359 L188.288,28.97 C186.311,26.993 184.241,16.901 184.985,12.866 C185.226,11.556 186.101,9.595 186.964,8.427 C187.308,7.963 187.802,7.268 188.062,6.882 C189.337,4.995 191.933,3.614 195.225,3.073 C199.82,2.317 200.703,2.316 202.639,3.064 M127.035,69.843 C125.908,69.916 124.469,70.057 123.836,70.155 C123.204,70.253 121.527,70.333 120.11,70.333 C117.177,70.333 115.166,70.623 110.917,71.656 C109.45,72.012 107.65,72.432 106.917,72.589 C106.183,72.745 105.018,73.082 104.327,73.336 C103.636,73.591 102.248,73.997 101.243,74.238 C98.098,74.994 96.103,75.525 95.55,75.755 C95.256,75.877 94,76.283 92.759,76.658 C91.518,77.033 89.92,77.592 89.209,77.901 C88.498,78.21 87.317,78.666 86.583,78.914 C84.144,79.738 82.613,80.746 81.751,82.092 C81.432,82.592 81.076,83.006 80.96,83.014 C80.845,83.021 80.337,83.019 79.833,83.009 C78.713,82.986 77.247,83.685 75.333,85.154 C74.646,85.682 73.522,86.481 72.836,86.931 C71.177,88.018 66.389,92.714 64.451,95.156 C63.609,96.216 62.529,97.549 62.052,98.117 C61.574,98.686 60.571,100.073 59.821,101.201 C59.072,102.328 58.18,103.55 57.839,103.917 C56.483,105.373 54.582,108.47 52.774,112.167 C51.766,114.229 50.614,116.455 50.215,117.113 C49.288,118.642 48.097,121.483 47.652,123.225 C47.18,125.075 46.518,126.932 45.626,128.917 C45.173,129.923 44.675,131.442 44.367,132.75 C41.71,144.06 40.925,162.431 42.84,168.467 C43.142,169.418 43.42,170.77 43.516,171.75 C43.704,173.659 43.846,174.266 45.103,178.5 C46.797,184.21 48.437,188.02 50.767,191.667 C51.382,192.629 52.316,194.21 52.843,195.179 C54.787,198.755 57.142,202.268 59.315,204.833 C60.053,205.704 61.218,207.101 61.904,207.936 C63.345,209.694 65.549,211.795 66.748,212.556 C71.374,215.493 73.004,216.707 74.247,218.142 C76.601,220.858 79.737,222.901 86,225.797 C91.575,228.374 92.128,228.57 101,231.099 C104.802,232.183 109.439,233.156 112.833,233.583 C113.979,233.727 115.667,233.996 116.583,234.181 C117.5,234.366 119.3,234.586 120.583,234.67 C121.867,234.754 123.817,234.939 124.917,235.082 C129.248,235.647 140.763,235.205 144.417,234.334 C144.783,234.246 145.796,234.171 146.667,234.167 C147.537,234.162 148.55,234.086 148.917,233.998 C149.627,233.826 155.853,232.771 157.25,232.586 C158.796,232.381 160.905,231.668 163.183,230.581 C164.43,229.987 165.52,229.5 165.605,229.5 C165.824,229.5 169.608,227.24 170.323,226.682 C170.649,226.427 171.479,225.896 172.167,225.501 C172.854,225.107 174.213,224.161 175.187,223.4 C176.16,222.638 177.412,221.748 177.968,221.422 C178.523,221.097 179.189,220.656 179.447,220.443 C179.706,220.23 180.367,219.752 180.917,219.381 C181.467,219.01 182.408,218.192 183.009,217.562 C183.954,216.572 185.272,215.356 189.056,211.983 C189.78,211.337 191.866,208.742 194.772,204.871 C195.342,204.112 196.125,202.912 196.511,202.204 C196.898,201.496 197.718,200.129 198.333,199.167 C200.213,196.224 201.62,193.499 202.644,190.813 C203.181,189.403 203.965,187.363 204.386,186.279 C204.806,185.195 205.275,183.696 205.428,182.946 C205.58,182.197 205.92,181.001 206.183,180.289 C206.958,178.186 207.662,175.101 208.015,172.25 C208.197,170.783 208.537,168.608 208.771,167.417 C209.107,165.706 209.228,164.408 209.345,161.25 C209.428,159.05 209.572,156.537 209.666,155.667 C209.779,154.613 209.782,153.525 209.675,152.417 C209.585,151.5 209.554,149.887 209.605,148.833 C209.679,147.318 209.643,146.764 209.432,146.187 C209.272,145.748 209.165,144.919 209.163,144.104 C209.162,143.359 209.091,142.262 209.005,141.667 C208.92,141.071 208.767,138.858 208.665,136.75 C208.456,132.417 208.175,130.726 207.186,127.833 C205.785,123.736 204.796,121.382 203.756,119.667 C203.173,118.704 202.121,116.717 201.418,115.25 C199.676,111.613 198.396,109.517 196.725,107.566 C195.948,106.659 194.555,104.904 193.63,103.667 C192.705,102.429 191.412,100.892 190.758,100.25 C190.104,99.608 189.32,98.708 189.016,98.25 C187.557,96.048 179.223,88.51 176.568,86.991 C176.08,86.712 174.789,85.831 173.7,85.033 C172.611,84.236 171.036,83.171 170.199,82.667 C169.362,82.162 167.757,81.166 166.631,80.453 C162.566,77.878 157.083,75.334 153.294,74.265 C152.17,73.947 150.125,73.242 148.75,72.696 C144.403,70.972 142.784,70.59 138.742,70.335 C137.371,70.249 135.822,70.105 135.3,70.016 C134.777,69.927 133.329,69.849 132.082,69.844 C130.835,69.839 129.651,69.807 129.449,69.772 C129.248,69.738 128.162,69.77 127.035,69.843 M135.31,71.188 C135.71,71.273 137.285,71.412 138.81,71.496 C142.572,71.703 144.685,72.222 148.644,73.91 C149.411,74.237 151.061,74.811 152.311,75.184 C156.14,76.329 160.98,78.414 164.057,80.244 C168.316,82.777 172.035,85.145 173.361,86.17 C174.208,86.825 175.524,87.728 176.284,88.178 C178.882,89.712 186.535,96.676 187.994,98.833 C188.211,99.154 189.076,100.129 189.917,101 C190.757,101.871 191.758,103.033 192.14,103.583 C192.967,104.774 194.108,106.218 195.905,108.349 C197.687,110.462 198.265,111.39 200.048,115 C200.886,116.696 202.085,118.967 202.713,120.048 C203.341,121.128 203.993,122.403 204.16,122.881 C204.327,123.359 204.629,124.125 204.83,124.583 C205.313,125.686 206.803,130.051 207.02,131 C207.299,132.218 207.553,135.559 207.978,143.583 C208.048,144.915 208.207,146.203 208.347,146.583 C208.578,147.211 208.637,154.176 208.435,157.083 C208.404,157.542 208.293,159.642 208.19,161.75 C208.057,164.464 207.904,165.997 207.666,167 C207.222,168.865 207.044,170.002 206.819,172.417 C206.623,174.517 206.22,176.263 205.164,179.59 C204.814,180.694 204.442,182.067 204.338,182.642 C204.087,184.024 203.16,186.667 202.166,188.833 C201.725,189.796 201.309,190.846 201.244,191.167 C201.048,192.122 198.798,196.445 197.458,198.439 C196.773,199.46 195.824,200.998 195.35,201.856 C194.875,202.714 194.134,203.881 193.702,204.449 C189.342,210.179 188.787,210.843 187.536,211.821 C186.024,213.004 184.151,214.711 182.268,216.623 C180.993,217.918 180.038,218.665 177.79,220.126 C177.262,220.469 175.874,221.451 174.706,222.309 C173.539,223.166 172.026,224.174 171.345,224.549 C170.663,224.924 169.872,225.435 169.586,225.686 C169.024,226.18 165.192,228.5 164.939,228.5 C164.854,228.5 163.614,229.056 162.184,229.735 C159.542,230.99 158.282,231.367 156,231.584 C155.404,231.64 154.017,231.861 152.917,232.075 C149.027,232.828 147.875,233 146.704,233 C146.052,233 144.184,233.182 142.551,233.404 C136.477,234.231 128.211,234.469 124.917,233.912 C124.092,233.772 122.367,233.589 121.083,233.505 C119.8,233.421 117.775,233.169 116.583,232.944 C115.392,232.72 113.522,232.447 112.429,232.337 C111.336,232.228 109.873,231.993 109.179,231.815 C108.485,231.638 106.979,231.301 105.833,231.067 C104.688,230.834 103.15,230.466 102.417,230.25 C98.448,229.082 96.27,228.438 95,228.058 C92.351,227.265 89.546,226.176 86.979,224.942 C85.57,224.265 83.759,223.404 82.956,223.029 C79.65,221.485 76.672,219.292 74.86,217.069 C73.807,215.777 73.262,215.351 70.32,213.525 C67.169,211.568 66.289,210.937 65.175,209.833 C64.319,208.985 63.724,208.281 60.114,203.849 C57.13,200.185 55.892,198.36 54.167,195.083 C53.588,193.983 52.803,192.633 52.423,192.083 C49.829,188.329 48.726,185.972 46.882,180.25 C45.315,175.384 44.999,174.123 44.836,172.083 C44.719,170.622 44.551,169.85 44.009,168.279 C43.047,165.494 42.842,163.789 43.083,160.583 C43.154,159.644 43.126,157.427 43.02,155.5 C42.863,152.665 42.873,151.629 43.08,149.417 C43.779,141.927 43.947,140.635 44.821,136 C45.606,131.836 45.938,130.646 46.846,128.728 C47.747,126.825 48.477,124.863 48.922,123.145 C49.335,121.554 50.438,118.917 51.313,117.432 C52.071,116.145 53.639,113.016 54.87,110.333 C55.502,108.957 57.586,105.833 58.721,104.562 C59.12,104.115 60.059,102.832 60.808,101.71 C61.557,100.589 62.601,99.164 63.127,98.544 C63.653,97.924 64.623,96.704 65.282,95.833 C67.445,92.977 71.381,89.146 73.847,87.496 C74.71,86.918 75.829,86.124 76.333,85.731 C77.93,84.488 78.901,84.241 79.871,84.833 C81.017,85.532 81.884,84.998 82.586,83.159 C83.199,81.555 84.26,80.828 87.781,79.603 C88.681,79.29 90.017,78.808 90.75,78.532 C93.892,77.348 98.516,76.006 101.5,75.411 C102.279,75.256 103.667,74.874 104.583,74.562 C109.969,72.732 116.3,71.5 120.323,71.5 C121.695,71.5 123.196,71.419 123.66,71.319 C125.761,70.869 133.411,70.782 135.31,71.188 M220.439,84.587 C222.355,84.849 222.669,87.083 222.757,101.083 C222.838,113.949 223.063,121.28 223.58,127.917 C224.412,138.587 224.65,145.443 224.169,144.884 C223.941,144.618 222.764,138.09 222.418,135.167 C222.358,134.662 222.123,133.537 221.895,132.667 C221.668,131.796 221.368,130.491 221.23,129.767 C221.091,129.043 220.696,127.731 220.351,126.851 C220.006,125.97 219.594,124.899 219.435,124.469 C219.277,124.04 218.841,123.215 218.466,122.636 C218.091,122.057 216.83,119.694 215.664,117.384 C214.498,115.074 212.983,112.337 212.297,111.3 C211.611,110.264 210.617,108.704 210.087,107.833 C207.728,103.957 205.636,101.21 202.083,97.323 C198.669,93.587 198.087,92.857 196.043,89.75 C195.62,89.108 194.688,87.926 193.971,87.122 C191.946,84.853 191.033,85.11 202.917,84.607 C207.368,84.419 219.108,84.405 220.439,84.587 M329.083,186.665 C328.258,186.84 326.758,187.143 325.75,187.338 C324.742,187.533 323.167,187.944 322.25,188.251 C321.333,188.559 319.946,188.971 319.167,189.167 C318.202,189.41 317.271,189.803 316.25,190.4 C315.425,190.882 314.196,191.599 313.52,191.992 C311.51,193.161 309.075,195.309 307.276,197.5 C306.712,198.188 305.448,199.606 304.468,200.651 C302.115,203.161 301.862,203.67 300.724,208.197 L299.789,211.917 L300.133,214.25 C301.177,221.336 306.3,226.094 313.5,226.664 C314.462,226.741 315.587,226.935 316,227.096 C316.593,227.327 317.185,227.382 318.833,227.356 C319.979,227.339 322.202,227.413 323.773,227.521 L326.629,227.718 L328.025,227.282 C330.195,226.606 332.17,226.169 333.083,226.165 C333.571,226.162 334.5,225.954 335.325,225.663 C337.99,224.724 337.913,224.584 337.927,230.417 C337.933,232.892 338.025,235.629 338.132,236.5 C338.366,238.414 338.454,244.987 338.309,249.667 C338.247,251.667 338.272,253.601 338.37,254.333 C338.462,255.021 338.56,257.496 338.589,259.833 C338.618,262.171 338.721,264.758 338.819,265.583 C339.078,267.775 339.232,271.349 339.098,272.063 C338.93,272.961 338.669,273.012 333.417,273.178 C327.052,273.379 324.305,273.591 322.949,273.985 C322.325,274.167 321.2,274.437 320.449,274.586 C317.711,275.128 313.405,276.461 311.833,277.252 C311.421,277.46 310.108,277.971 308.917,278.388 C301.982,280.815 296.431,284.681 294.554,288.392 C294.316,288.864 293.831,289.677 293.477,290.199 C291.258,293.472 292.52,300.715 295.646,302.638 C296.087,302.91 296.922,303.554 297.501,304.071 C299.936,306.244 307.284,308.487 312.032,308.507 C312.977,308.511 314.087,308.59 314.5,308.683 C315.391,308.883 319.156,309.111 325,309.318 C329.117,309.464 330.237,309.43 336.142,308.978 C337.58,308.869 339.697,308.828 340.977,308.887 C344.535,309.048 346.949,308.444 348.133,307.097 C348.636,306.524 348.705,306.305 348.922,304.611 C348.978,304.168 349.132,303.502 349.262,303.132 C349.541,302.343 349.57,301.154 349.331,300.332 C349.238,300.012 349.121,299.075 349.072,298.25 C349.023,297.425 348.908,296.3 348.817,295.75 C348.726,295.2 348.625,292.987 348.593,290.833 C348.561,288.679 348.445,286.098 348.336,285.097 C348.185,283.724 348.182,282.963 348.325,281.991 C348.517,280.674 348.45,278.192 348.157,275.75 C348.013,274.56 347.789,266.872 347.781,262.917 C347.778,261.144 347.991,248.186 348.102,243.417 C348.145,241.583 348.173,239.783 348.164,239.417 C348.155,239.05 348.152,237.4 348.157,235.75 C348.163,233.716 348.08,232.24 347.898,231.167 C347.498,228.814 347.477,220.813 347.866,218.75 C348.021,217.925 348.23,216.688 348.331,216 C348.431,215.313 348.773,213.945 349.09,212.961 C350.381,208.957 350.591,203.338 349.67,197.474 C349.207,194.523 347.467,191.742 344.667,189.478 C342.811,187.978 342.104,187.71 339,187.335 C338.129,187.229 336.554,186.996 335.5,186.816 C332.639,186.328 330.867,186.286 329.083,186.665 M334.966,187.908 C335.581,188.036 337.203,188.305 338.571,188.505 C342.28,189.048 342.908,189.354 345.266,191.767 C347.719,194.278 348.386,196.035 348.768,200.993 C349.152,205.988 348.899,209.553 347.996,211.843 C347.679,212.647 347.332,214.365 346.652,218.5 C346.194,221.285 346.15,225.268 346.467,235.25 C346.651,241.054 346.643,251.319 346.446,263.167 C346.405,265.633 346.698,275.196 346.846,276.258 C346.948,276.987 347.06,279.758 347.094,282.417 C347.214,291.736 347.315,294.765 347.567,296.5 C348.259,301.282 348.303,302.177 347.895,303.158 C347.763,303.474 347.588,304.211 347.505,304.796 C347.162,307.222 346.092,307.647 340.083,307.742 C338.158,307.773 335.365,307.889 333.876,308.001 C329.745,308.312 316.798,307.983 314.667,307.513 C314.254,307.422 313.119,307.345 312.143,307.341 C307.962,307.323 300.705,305.111 298.407,303.152 C297.862,302.688 296.985,302.002 296.458,301.629 C294.182,300.019 292.863,295.153 293.903,292.206 C295.715,287.07 301.793,281.995 308.917,279.669 C309.558,279.459 311.246,278.817 312.667,278.241 C319.335,275.537 324.397,274.609 333.917,274.347 C339.278,274.199 339.729,274.134 340.164,273.446 C340.575,272.798 340.577,269.739 340.171,266.247 C339.922,264.113 339.818,262.378 339.851,260.917 C339.878,259.725 339.802,257.287 339.681,255.5 C339.531,253.267 339.496,250.66 339.568,247.167 C339.632,244.094 339.601,240.897 339.491,239.083 C339.391,237.433 339.258,233.52 339.196,230.387 C339.088,224.929 339.069,224.671 338.729,224.22 C338.214,223.536 337.024,223.572 335.337,224.324 C334.495,224.699 333.657,224.927 332.756,225.028 C331.152,225.208 329.723,225.523 327.863,226.11 C326.478,226.546 326.47,226.547 323.863,226.356 C322.426,226.252 320.341,226.166 319.229,226.166 C317.768,226.167 317.007,226.091 316.479,225.895 C316.078,225.745 314.887,225.565 313.833,225.495 C311.758,225.358 308.812,224.472 307.463,223.579 C301.86,219.871 300.192,215.189 301.93,208.051 C302.845,204.296 303.109,203.765 305.124,201.628 C305.971,200.729 307.236,199.301 307.935,198.455 C310.783,195.004 316.008,191.284 319.167,190.457 C319.671,190.324 320.908,189.915 321.917,189.546 C322.952,189.168 324.802,188.676 326.167,188.417 C327.496,188.164 329.071,187.856 329.667,187.731 C330.913,187.471 333.248,187.549 334.966,187.908 M32.495,188.089 C31.981,188.709 32.521,190.235 33.219,190.135 C33.752,190.059 33.839,188.672 33.342,188.175 C32.933,187.766 32.776,187.75 32.495,188.089 M328.25,192.712 C326.698,192.965 322.163,194.168 321.387,194.532 C319.294,195.514 317.471,198.87 316.153,204.167 C315.127,208.291 319.23,215.806 323.417,217.473 C327.914,219.263 332.389,219.426 335.98,217.929 C336.495,217.714 337.309,217.456 337.788,217.355 C340.694,216.743 343.365,213.716 344.565,209.675 C345.05,208.044 344.795,201.885 344.169,200.083 C343.978,199.533 343.706,198.639 343.566,198.097 C342.696,194.746 340.538,193.033 336.731,192.672 C334.534,192.464 329.628,192.487 328.25,192.712 M336.506,193.9 C340.351,194.31 341.522,195.215 342.401,198.454 C342.619,199.259 342.881,200.128 342.983,200.387 C343.173,200.871 343.435,203.329 343.607,206.25 C343.715,208.081 343.511,209.564 343.023,210.496 C340.735,214.866 339.856,215.746 337.295,216.236 C336.595,216.37 335.795,216.598 335.516,216.742 C331.421,218.859 324.036,217.559 321.1,214.203 C316.896,209.399 316.308,204.944 319.112,199.134 C320.75,195.74 321.883,195.109 328.583,193.861 C329.839,193.627 334.147,193.649 336.506,193.9 M332.083,278.513 C324.136,278.789 319.932,279.629 314.82,281.96 C309.492,284.391 308.926,290.898 313.624,295.699 C315.989,298.115 320.999,300.241 325.919,300.915 C326.376,300.978 327.312,301.181 327.999,301.368 C331.977,302.448 339.195,300.949 340.143,298.847 C340.483,298.093 340.636,288.624 340.344,286.427 C340.216,285.462 340.213,284.355 340.335,282.639 C340.662,278.038 340.994,278.204 332.083,278.513 M338.87,280.004 C339.169,280.373 339.193,280.645 339.159,283.245 C339.138,284.806 339.155,288.483 339.195,291.417 C339.293,298.443 339.198,298.917 337.593,299.359 C337.221,299.461 336.332,299.722 335.616,299.939 C333.219,300.666 329.154,300.488 324.833,299.469 C324.054,299.285 322.952,299.034 322.384,298.911 C321.439,298.707 318.141,297.407 316.624,296.642 C314.252,295.444 311.833,291.669 311.698,288.954 C311.569,286.346 313.164,284.01 315.833,282.902 C320.006,281.168 322.79,280.438 326.25,280.167 C327.35,280.082 329.112,279.93 330.167,279.831 C331.221,279.732 332.796,279.693 333.667,279.744 C334.537,279.795 335.512,279.764 335.833,279.677 C336.926,279.378 338.5,279.547 338.87,280.004" id="path2"></path>
        </g>
        <text id="Shop" fill="#FFFFFF" font-family="Questrial-Regular, Questrial" font-size="200" font-weight="normal" letter-spacing="4.33333349">
            <tspan x="426.866666" y="233">Shop</tspan>
        </text>
    </g>
</svg>